<?xml version="1.0" standalone="no"?>
<!DOCTYPE svg PUBLIC "-//W3C//DTD SVG 20010904//EN"
 "http://www.w3.org/TR/2001/REC-SVG-20010904/DTD/svg10.dtd">
<svg version="1.0" xmlns="http://www.w3.org/2000/svg"
 width="500.000000pt" height="500.000000pt" viewBox="0 0 500.000000 500.000000"
 preserveAspectRatio="xMidYMid meet">

<g transform="translate(0.000000,500.000000) scale(0.100000,-0.100000)"
fill="#000000" stroke="none">
<path d="M2245 4712 c-238 -10 -540 -76 -737 -161 -67 -28 -223 -126 -323
-201 -93 -71 -371 -346 -465 -460 -143 -174 -264 -417 -331 -664 -20 -76 -20
-80 -4 -133 13 -40 22 -53 34 -51 9 2 17 9 17 16 1 6 3 15 4 20 7 21 4 39 -10
56 -14 18 -13 19 3 13 14 -5 17 -1 17 23 0 16 4 31 9 34 4 3 11 19 14 36 4 18
13 30 22 30 20 0 19 -15 -4 -88 -28 -86 -45 -178 -37 -199 6 -15 8 -15 16 -3
23 36 63 190 64 247 1 62 8 78 20 47 10 -27 7 -49 -29 -180 -33 -122 -44 -143
-72 -144 -12 0 -25 -38 -38 -115 -16 -92 -21 -262 -13 -437 9 -185 9 -187 -13
-217 -21 -29 -22 -36 -16 -173 4 -79 13 -168 21 -197 8 -30 12 -69 9 -87 -7
-45 12 -125 51 -213 39 -87 53 -141 37 -141 -18 0 -51 63 -51 97 0 36 -9 63
-20 63 -10 0 12 -96 28 -127 7 -12 12 -41 12 -65 0 -57 11 -75 34 -53 9 9 16
24 16 34 0 9 4 21 9 26 6 6 -10 66 -40 154 -55 160 -67 237 -15 96 18 -49 45
-117 60 -150 l27 -60 -16 -75 c-9 -41 -21 -85 -27 -97 -8 -17 -5 -32 21 -79
17 -32 31 -61 31 -65 0 -4 -18 -10 -41 -14 -22 -4 -77 -20 -121 -36 -63 -23
-111 -32 -217 -41 -75 -6 -146 -11 -159 -11 -22 1 -23 -2 -21 -73 1 -40 5 -72
8 -70 12 8 85 -63 110 -107 29 -50 162 -238 288 -407 44 -60 109 -154 144
-210 l62 -100 209 0 c146 0 208 3 208 11 0 8 11 9 33 4 17 -4 75 -9 127 -10
78 -3 87 -2 50 6 -25 5 -50 15 -56 24 -6 8 -13 13 -16 10 -2 -3 -15 6 -28 20
-13 14 -29 25 -35 25 -7 0 -29 11 -50 25 -20 15 -50 27 -66 28 -16 1 -29 8
-29 15 0 6 -4 12 -10 12 -5 0 -10 -5 -10 -11 0 -6 -8 -3 -17 8 -10 10 -13 12
-8 4 8 -12 5 -13 -18 -7 -38 9 -70 38 -54 48 9 6 9 8 0 8 -7 0 -10 7 -6 18 3
9 3 14 -1 10 -4 -3 -16 1 -27 10 -13 11 -15 18 -7 23 14 9 -89 4 -119 -5 -17
-5 -23 -3 -23 8 0 22 49 76 69 76 9 0 22 5 27 10 12 12 96 16 112 6 5 -3 43
-6 83 -7 41 -1 94 -7 118 -15 38 -11 47 -11 69 4 15 9 23 12 19 5 -13 -20 51
-40 138 -42 112 -2 130 -5 130 -16 2 -31 21 -58 54 -74 48 -25 55 -69 15 -100
-15 -12 -33 -21 -40 -21 -8 0 -14 -6 -14 -14 0 -17 -37 -28 -44 -12 -2 6 -5 3
-5 -8 -1 -13 4 -17 19 -13 10 3 21 0 23 -6 2 -8 9 -6 20 4 9 9 13 20 9 24 -4
4 6 1 21 -6 24 -11 30 -11 38 2 5 8 9 10 9 6 0 -5 13 1 29 12 16 12 36 21 44
21 9 0 19 5 22 10 4 6 14 8 24 5 10 -3 30 7 51 26 32 29 34 30 47 13 17 -23
16 -56 -1 -121 -13 -50 -13 -53 4 -53 15 0 20 11 26 57 9 75 28 119 61 140 24
16 58 18 303 20 151 1 284 2 295 2 11 1 67 2 125 1 113 0 120 1 163 18 16 7
40 12 55 12 15 0 59 6 97 14 39 8 91 17 117 20 47 4 47 4 45 -25 -2 -22 -6
-28 -19 -23 -10 3 -18 1 -18 -4 0 -25 -171 -39 -775 -63 -216 -8 -308 -16
-327 -26 -31 -15 -58 -69 -58 -114 l0 -29 1145 0 1144 0 11 43 c11 42 26 91
41 137 5 14 18 63 29 110 12 47 25 90 29 95 5 6 11 25 15 43 15 84 110 372
117 360 7 -10 9 -9 9 2 0 26 -22 40 -63 40 -32 0 -49 8 -91 43 -78 67 -89 71
-203 71 -65 0 -103 4 -103 11 0 5 16 32 35 59 32 45 35 56 35 117 0 65 2 70
40 114 48 55 70 96 70 127 0 13 31 86 70 163 114 227 143 356 112 490 -9 39
-9 39 -19 15 -6 -14 -32 -69 -57 -123 -25 -55 -46 -104 -46 -109 0 -27 -100
-212 -156 -288 -83 -113 -316 -330 -355 -330 -5 0 -7 -4 -4 -10 3 -5 -2 -10
-11 -10 -10 0 -29 -11 -43 -24 -22 -20 -166 -98 -236 -127 -215 -90 -537 -149
-892 -161 -61 -3 -68 -5 -50 -15 25 -13 215 -10 337 6 41 5 77 8 81 5 4 -2 19
0 33 6 14 5 56 12 93 15 127 10 163 16 270 46 60 16 121 32 137 34 16 2 36 11
45 18 22 19 138 67 161 67 11 0 24 8 29 18 9 14 12 15 20 3 7 -11 10 -9 13 10
2 16 9 24 21 23 9 -1 17 4 17 12 0 8 10 14 25 14 14 0 37 8 51 17 22 14 27 14
35 2 7 -11 9 -8 9 10 0 16 4 21 15 17 8 -3 14 0 12 6 -1 6 8 12 21 13 22 2 21
0 -8 -30 -17 -18 -43 -38 -58 -46 -15 -7 -40 -24 -55 -36 -16 -13 -33 -23 -38
-23 -6 0 -25 -11 -42 -24 -46 -34 -200 -105 -327 -149 -97 -34 -330 -94 -395
-101 -27 -3 -77 -10 -110 -16 -60 -10 -394 -14 -450 -5 -32 5 -144 13 -260 19
-38 2 -160 23 -270 46 -110 23 -210 43 -222 45 -12 2 -86 28 -165 58 -79 30
-154 58 -168 62 -27 8 -133 69 -163 94 -17 14 -48 33 -77 48 -23 11 -49 46
-50 66 0 11 -10 20 -30 23 -31 7 -43 27 -12 22 12 -2 16 3 14 17 -2 19 -1 19
17 -2 10 -13 26 -23 34 -23 8 0 20 -7 27 -15 7 -8 18 -14 24 -13 14 2 66 -23
66 -32 0 -11 132 -66 290 -120 85 -29 198 -67 250 -86 87 -30 358 -95 455
-108 22 -3 54 -2 70 3 34 9 56 4 -245 61 -281 54 -434 105 -675 227 -145 73
-237 136 -339 233 -83 79 -205 239 -251 330 -42 83 -107 249 -125 315 -7 28
-19 69 -26 93 -8 23 -21 97 -30 165 -35 260 6 590 110 892 59 174 169 378 272
505 62 78 211 225 273 272 153 115 236 165 306 188 22 7 72 27 110 45 80 37
294 101 372 110 123 16 461 22 513 10 14 -3 50 -8 80 -11 67 -7 242 -35 251
-40 4 -2 39 -11 79 -19 39 -8 100 -26 133 -39 34 -13 99 -38 145 -55 45 -17
99 -41 120 -53 20 -11 56 -31 78 -43 23 -12 57 -34 76 -49 19 -14 38 -26 41
-26 29 0 362 -285 366 -313 1 -7 65 -91 81 -107 23 -22 112 -144 131 -180 13
-24 33 -53 43 -62 14 -13 15 -18 5 -18 -10 -1 -9 -4 4 -14 9 -7 17 -19 17 -26
0 -6 8 -24 19 -38 10 -15 37 -80 59 -146 23 -65 42 -119 44 -120 2 0 13 -7 26
-14 19 -11 22 -10 22 6 0 10 11 33 25 52 30 41 30 46 4 157 -38 160 -70 257
-119 358 -27 55 -76 166 -110 246 l-61 146 -167 171 c-92 93 -192 185 -222
205 -30 19 -125 69 -210 111 -85 43 -198 99 -251 126 -108 55 -274 120 -367
144 -152 40 -391 65 -547 58z m-60 -141 c-11 -5 -25 -6 -31 -4 -7 2 -15 -1
-19 -7 -5 -8 1 -11 16 -10 49 4 70 0 63 -12 -4 -7 -3 -8 4 -4 9 5 9 13 2 27
-14 26 2 25 18 -2 7 -11 18 -19 25 -16 6 2 20 -5 31 -15 23 -21 38 -24 30 -5
-2 7 4 13 16 14 21 2 27 -11 10 -22 -6 -4 -7 -11 -4 -17 5 -7 1 -9 -9 -5 -10
3 -17 2 -17 -3 0 -14 24 -12 39 3 11 10 12 8 6 -13 -3 -14 -7 -32 -7 -41 1
-16 -5 -18 -63 -23 -16 -1 -46 -6 -65 -9 -19 -3 -78 -9 -130 -12 -129 -8 -213
-23 -429 -74 -46 -11 -88 -18 -93 -15 -5 3 -16 0 -25 -8 -14 -11 -16 -11 -9 1
6 10 4 12 -10 7 -24 -7 -38 3 -42 29 -3 15 -1 17 8 9 13 -13 60 4 60 22 0 6 9
19 20 29 21 19 28 7 8 -13 -9 -9 -7 -12 10 -12 13 0 22 6 22 15 0 9 9 15 25
15 13 0 40 9 60 20 20 11 44 20 54 20 10 0 21 7 25 15 3 8 12 15 21 15 8 0 15
5 15 10 0 6 16 10 35 10 20 0 38 6 41 13 3 8 21 13 50 12 32 -2 47 3 54 14 8
14 9 14 10 1 0 -10 9 -4 26 15 14 17 23 25 20 18 -4 -6 6 -15 23 -21 25 -9 30
-7 40 14 8 19 18 24 48 23 29 0 33 -2 18 -8z m231 -106 c14 -11 15 -15 4 -14
-8 1 -22 1 -30 0 -13 -1 -13 -2 0 -12 10 -7 11 -9 2 -7 -8 2 -13 7 -13 11 1 4
1 14 1 22 0 19 11 19 36 0z m-684 -17 c-7 -7 -12 -8 -12 -2 0 14 12 26 19 19
2 -3 -1 -11 -7 -17z m-27 -8 c3 -5 2 -10 -4 -10 -5 0 -13 5 -16 10 -3 6 -2 10
4 10 5 0 13 -4 16 -10z m745 -25 c11 -13 10 -14 -4 -9 -9 3 -16 10 -16 15 0
13 6 11 20 -6z m80 1 c0 -3 -4 -8 -10 -11 -5 -3 -10 -1 -10 4 0 6 5 11 10 11
6 0 10 -2 10 -4z m73 -18 c3 -10 2 -18 -1 -18 -12 1 -42 27 -37 32 12 11 34 3
38 -14z m72 2 c-3 -5 -11 -10 -16 -10 -6 0 -7 5 -4 10 3 6 11 10 16 10 6 0 7
-4 4 -10z m-280 -20 c-3 -5 -12 -10 -20 -10 -8 0 -17 5 -20 10 -4 6 5 10 20
10 15 0 24 -4 20 -10z m-855 -14 c0 -11 -19 -15 -25 -6 -3 5 1 10 9 10 9 0 16
-2 16 -4z m1000 -6 c0 -5 -8 -10 -17 -10 -15 0 -16 2 -3 10 19 12 20 12 20 0z
m364 -62 c-3 -4 0 -8 7 -8 7 0 10 -2 7 -5 -7 -7 -38 5 -38 14 0 4 7 8 15 8 8
0 12 -4 9 -9z m184 -9 c2 -5 12 -9 23 -9 10 0 19 -6 20 -12 0 -8 3 -6 7 3 10
23 72 6 72 -20 0 -10 -7 -21 -15 -25 -17 -6 -20 5 -4 21 7 7 4 12 -10 16 -12
3 -19 1 -15 -4 3 -5 -4 -9 -15 -9 -11 0 -23 5 -27 11 -3 6 -14 9 -24 6 -11 -3
-21 1 -23 8 -3 6 -19 11 -36 10 -33 -2 -43 11 -13 18 21 6 56 -3 60 -14z
m-1706 -58 c-10 -11 -21 -14 -28 -9 -6 4 -13 5 -17 2 -3 -3 -3 3 0 14 6 23 32
33 50 20 9 -7 7 -14 -5 -27z m-60 7 c-18 -18 -15 -28 10 -28 16 0 19 -3 11
-11 -8 -8 -17 -7 -33 4 -19 13 -20 16 -5 31 9 9 19 16 23 16 3 0 1 -5 -6 -12z
m2012 -29 c16 -10 33 -16 38 -13 4 3 8 0 8 -5 0 -6 6 -11 14 -11 8 0 28 -13
46 -30 17 -16 35 -29 38 -28 12 3 62 -25 62 -34 0 -4 7 -8 15 -8 9 0 27 -11
41 -25 14 -14 29 -25 34 -25 5 0 15 -9 23 -21 11 -15 16 -17 20 -7 3 10 9 8
23 -6 11 -10 13 -16 7 -12 -7 4 -13 2 -13 -3 0 -6 9 -11 19 -11 17 0 36 -25
33 -42 -1 -5 4 -8 11 -8 25 0 200 -190 197 -214 -1 -5 2 -12 7 -15 10 -7 73
-99 73 -107 0 -5 11 -19 38 -49 6 -7 12 -18 12 -23 0 -6 3 -12 8 -14 7 -3 45
-77 46 -91 1 -4 6 -11 12 -15 16 -10 44 -68 44 -91 0 -29 -11 -52 -21 -45 -5
3 -7 10 -4 15 4 5 0 9 -8 9 -8 0 -24 17 -35 38 -10 20 -30 55 -42 77 -13 22
-32 57 -42 77 -10 20 -26 41 -35 47 -10 5 -17 13 -16 18 2 10 -69 103 -79 103
-4 0 -5 6 -2 14 3 9 -5 21 -20 31 -14 10 -24 21 -21 25 3 4 -2 10 -10 14 -8 3
-15 12 -15 21 0 8 -7 15 -15 15 -8 0 -15 7 -15 15 0 8 -7 15 -16 15 -8 0 -12
4 -9 10 7 11 -25 70 -38 70 -15 0 -34 25 -29 39 3 8 0 11 -7 7 -6 -4 -21 2
-33 13 -12 12 -26 21 -32 21 -5 0 -6 3 -3 7 6 6 -6 14 -77 51 -21 11 -25 17
-15 23 10 6 10 9 2 9 -8 0 -10 7 -6 18 6 15 4 15 -9 4 -13 -11 -21 -11 -40 -1
-31 17 -48 35 -40 44 4 4 0 6 -8 4 -8 -1 -23 1 -32 4 -10 4 -26 10 -35 14 -10
3 -22 7 -28 7 -5 1 -9 9 -9 18 1 14 -2 15 -17 7 -26 -13 -37 -5 -34 26 2 14
-1 23 -6 19 -5 -3 -9 1 -9 8 0 10 -2 10 -9 -1 -5 -7 -14 -10 -20 -6 -9 5 -7
11 5 20 20 14 33 11 78 -16z m-2046 -27 c2 -8 -3 -10 -14 -5 -14 5 -16 2 -12
-21 5 -26 -1 -32 -76 -81 -44 -29 -90 -61 -101 -71 -11 -11 -32 -25 -47 -33
-15 -8 -25 -18 -22 -23 3 -4 -2 -8 -10 -8 -14 0 -20 -12 -17 -32 0 -5 -6 -8
-14 -8 -8 0 -15 -7 -15 -16 0 -10 -6 -14 -14 -11 -9 4 -17 -1 -20 -11 -4 -9
-26 -37 -51 -62 -24 -25 -44 -50 -45 -56 0 -6 -15 -31 -34 -55 -18 -24 -42
-62 -54 -84 -54 -107 -120 -245 -137 -285 l-18 -45 -7 30 c-3 17 -3 41 2 53 4
13 6 27 3 32 -3 5 -1 11 4 14 5 4 15 32 21 64 7 31 21 72 32 90 11 18 17 40
14 48 -4 10 0 18 12 21 10 2 26 22 35 45 10 23 58 80 112 134 52 52 95 99 95
105 0 5 4 8 9 5 4 -3 16 3 26 14 10 11 23 20 30 20 7 0 23 12 36 28 27 31 85
75 111 85 11 4 15 12 12 22 -3 8 -2 15 4 15 6 0 13 -6 15 -12 3 -7 8 2 12 20
4 17 12 32 17 32 5 0 7 -4 4 -9 -3 -5 1 -11 9 -15 20 -7 28 9 10 24 -12 10
-12 15 5 32 10 11 23 17 29 14 5 -4 13 -2 16 4 8 13 27 8 33 -8z m1987 -1 c-3
-6 -11 -8 -17 -5 -6 4 -5 9 3 15 16 10 23 4 14 -10z m-2162 -95 c4 -10 1 -13
-9 -9 -15 6 -19 23 -5 23 5 0 11 -7 14 -14z m-113 -110 c0 -3 -4 -8 -10 -11
-5 -3 -10 -1 -10 4 0 6 5 11 10 11 6 0 10 -2 10 -4z m3230 -764 c1 -9 11 -47
24 -84 13 -38 21 -80 18 -98 -2 -17 -6 -29 -8 -27 -10 10 -64 219 -59 227 9
14 25 2 25 -18z m-3767 -1064 c15 -15 31 -55 46 -118 12 -52 34 -132 48 -178
13 -46 23 -86 20 -88 -7 -7 -74 204 -88 276 -10 50 -20 72 -45 98 -20 20 -26
32 -18 32 8 0 25 -10 37 -22z m8 -149 c15 -62 26 -116 23 -118 -8 -8 -39 15
-40 30 0 8 -4 23 -9 34 -57 144 -66 181 -48 199 18 18 47 -40 74 -145z m3767
-199 c-6 -22 -15 -40 -20 -40 -6 0 -7 7 -4 16 3 9 9 27 12 40 3 13 10 24 14
24 4 0 3 -18 -2 -40z m-3648 -54 c0 -2 -8 -10 -17 -17 -16 -13 -17 -12 -4 4
13 16 21 21 21 13z m333 -481 c-3 -9 -8 -14 -10 -11 -3 3 -2 9 2 15 9 16 15
13 8 -4z m3017 -10 c-7 -9 -26 -25 -42 -36 -22 -16 -27 -17 -22 -5 3 9 11 16
16 16 6 0 7 7 4 16 -4 12 -1 14 14 9 11 -4 20 -2 20 4 0 6 5 11 11 11 8 0 7
-5 -1 -15z m-3215 -345 c16 -17 16 -20 3 -15 -9 4 -19 13 -22 21 -7 19 -2 18
19 -6z m65 -79 c0 -12 -6 -9 -20 9 -26 33 -26 48 0 25 11 -10 20 -25 20 -34z
m-497 7 c12 1 17 -4 13 -14 -3 -8 -1 -14 4 -14 6 0 10 -14 10 -31 0 -26 3 -29
14 -20 11 9 15 8 20 -4 3 -9 2 -14 -3 -11 -4 3 -23 1 -41 -4 -24 -7 -38 -6
-48 3 -12 9 -16 9 -19 0 -3 -7 -9 -13 -14 -13 -5 0 -9 6 -9 13 0 6 -9 23 -19
36 -31 41 -7 76 44 64 17 -3 38 -6 48 -5z m57 -18 c0 -6 15 -9 33 -8 31 3 32
2 34 -39 1 -24 -2 -45 -7 -48 -6 -4 -7 2 -3 11 5 13 2 16 -9 12 -10 -4 -20 2
-28 17 -7 14 -16 22 -20 20 -4 -2 -12 7 -18 20 -10 21 -9 25 3 25 8 0 15 -5
15 -10z m3470 5 c0 -8 -90 -88 -146 -130 -54 -40 -194 -121 -194 -111 0 2 26
19 57 37 76 43 249 174 257 194 5 14 26 22 26 10z m-3128 -20 c13 0 21 -15 9
-15 -9 0 -11 -8 -8 -21 4 -14 -3 -29 -24 -48 -16 -16 -29 -36 -29 -45 0 -19
-11 -21 -29 -3 -11 10 -12 8 -7 -10 5 -15 0 -28 -19 -47 -14 -14 -25 -34 -25
-45 0 -11 -6 -26 -13 -33 -8 -7 -20 -30 -26 -51 -7 -20 -22 -42 -33 -48 -11
-6 -17 -16 -14 -24 10 -27 -8 -23 -39 9 -38 39 -54 86 -30 86 9 0 18 7 21 15
4 10 13 13 26 9 37 -11 118 90 118 148 0 10 11 35 25 55 20 30 22 40 12 52 -9
11 -9 13 0 8 6 -4 15 -2 19 4 4 8 9 7 15 -2 6 -11 9 -10 15 4 3 10 11 14 18
10 6 -4 14 -8 18 -8z m343 -59 c11 -8 16 -15 10 -16 -5 0 -23 12 -40 26 -31
26 -6 18 30 -10z m2766 1 l-24 -22 19 27 c10 14 21 24 23 22 3 -3 -6 -15 -18
-27z m-2841 -7 c0 -5 -12 -10 -27 -9 -25 0 -26 1 -8 9 27 12 35 12 35 0z
m2288 -62 c-2 -38 -8 -63 -16 -66 -7 -2 -11 4 -10 15 4 48 -2 72 -17 67 -10
-4 -13 -17 -11 -46 4 -35 1 -40 -22 -49 -34 -13 -43 2 -40 66 3 49 3 50 41 56
20 3 40 9 44 12 3 4 13 7 20 7 11 0 13 -14 11 -62z m-2232 19 c17 6 58 -32 50
-46 -6 -9 -13 -6 -26 9 -24 28 -40 25 -40 -6 0 -21 3 -24 13 -15 8 6 17 8 20
4 12 -11 7 -23 -9 -23 -9 0 -12 -5 -8 -12 5 -7 2 -9 -8 -5 -9 3 -25 -3 -37
-14 -12 -11 -26 -17 -32 -13 -8 4 -7 9 2 15 8 4 -1 7 -23 5 -41 -3 -58 -12
-58 -30 0 -15 -58 -71 -85 -80 -15 -6 -16 -9 -6 -15 11 -7 9 -11 -7 -20 -11
-6 -28 -8 -36 -5 -9 3 -16 2 -16 -2 0 -12 -89 -59 -96 -51 -10 9 34 91 65 121
17 16 28 33 25 38 -3 5 3 12 15 15 12 3 21 9 21 13 0 11 36 50 46 50 5 0 15 9
22 21 8 12 19 18 28 15 7 -3 25 5 38 19 l23 23 33 -19 32 -20 -6 25 c-7 30 13
40 34 16 8 -9 20 -15 26 -13z m2724 2 c-50 -43 -110 -83 -115 -77 -4 4 134
106 145 107 3 0 -11 -13 -30 -30z m-3460 -14 c0 -5 -5 -3 -10 5 -5 8 -10 20
-10 25 0 6 5 3 10 -5 5 -8 10 -19 10 -25z m125 15 c3 -5 1 -10 -4 -10 -6 0
-11 5 -11 10 0 6 2 10 4 10 3 0 8 -4 11 -10z m35 6 c0 -3 -4 -8 -10 -11 -5 -3
-10 -1 -10 4 0 6 5 11 10 11 6 0 10 -2 10 -4z m735 -31 c121 -55 159 -75 135
-69 -43 11 -167 66 -191 86 -13 11 -19 18 -14 15 6 -2 37 -17 70 -32z m1943
-38 c2 -33 -1 -57 -7 -57 -5 0 -7 14 -5 33 4 20 0 39 -10 52 -15 19 -15 19
-16 1 0 -15 -2 -16 -15 -6 -21 17 -38 1 -33 -31 4 -32 33 -36 43 -7 6 21 8 21
12 4 3 -11 -4 -27 -15 -39 -31 -30 -52 -8 -52 54 0 46 1 48 33 52 60 8 62 6
65 -56z m-2688 39 c0 -3 -4 -8 -10 -11 -5 -3 -10 -1 -10 4 0 6 5 11 10 11 6 0
10 -2 10 -4z m2577 -48 c1 -26 -3 -50 -8 -53 -5 -4 -9 3 -9 14 0 12 -4 21 -10
21 -5 0 -10 -9 -10 -19 0 -11 -4 -23 -10 -26 -6 -4 -10 13 -10 45 0 32 -4 49
-10 45 -5 -3 -10 -27 -10 -53 0 -36 -5 -50 -20 -60 -19 -12 -20 -11 -14 28 5
33 3 44 -12 55 -29 22 -34 18 -34 -29 0 -25 -4 -48 -10 -51 -6 -4 -10 16 -10
53 0 53 2 60 22 65 12 4 28 1 35 -5 9 -7 13 -7 13 0 0 14 26 21 70 19 35 -2
35 -3 37 -49z m-1808 -18 c279 -124 605 -212 909 -245 100 -11 71 -24 -40 -18
-57 3 -122 6 -145 6 -24 0 -43 2 -43 6 0 3 -11 6 -25 6 -14 0 -25 -3 -25 -6 0
-13 -52 0 -68 18 -9 10 -26 19 -37 20 -54 7 -82 12 -108 22 -51 20 -65 -13
-21 -48 15 -12 22 -21 17 -21 -5 0 -9 -10 -10 -22 -1 -59 -4 -69 -15 -65 -7 2
-11 12 -10 22 3 15 1 17 -10 8 -15 -13 -35 -12 -56 1 -8 5 -21 1 -33 -10 -21
-19 -27 -6 -7 14 10 10 10 15 -2 22 -10 6 -6 9 15 8 55 -1 60 2 30 18 -21 11
-66 16 -157 18 -125 3 -158 9 -124 22 9 3 16 11 16 16 0 6 -7 8 -15 4 -8 -3
-15 -1 -15 4 0 6 0 13 0 18 0 4 3 7 8 8 4 0 17 5 30 10 l23 10 -26 22 c-14 13
-29 21 -33 18 -5 -3 -14 -1 -22 5 -12 7 -10 9 8 9 13 0 22 6 22 16 0 8 -4 13
-9 9 -5 -3 -17 5 -25 17 -12 17 -16 19 -16 6 0 -10 -12 -19 -30 -23 -28 -6
-43 -25 -19 -25 5 0 7 -5 4 -10 -5 -8 -12 -7 -23 2 -12 10 -14 10 -8 1 4 -8 2
-13 -4 -13 -7 0 -9 -7 -6 -16 3 -8 2 -12 -4 -9 -5 3 -20 -3 -32 -14 -12 -12
-28 -21 -35 -21 -7 0 -13 -5 -13 -10 0 -7 -6 -7 -19 0 -11 5 -21 6 -23 1 -5
-13 -145 -24 -153 -11 -6 10 -2 12 54 14 19 0 36 7 39 15 3 9 0 11 -8 6 -8 -5
-11 -1 -8 11 2 11 11 18 21 16 10 -2 17 4 17 13 0 9 15 30 33 47 17 17 26 28
20 24 -7 -4 -13 -2 -13 4 0 7 7 10 15 6 8 -3 29 1 47 8 18 7 45 11 60 10 16
-2 29 3 32 12 3 8 -1 14 -9 14 -8 0 -15 7 -15 15 0 8 -4 15 -10 15 -5 0 -10 5
-10 10 0 14 -4 15 119 -40z m1599 3 c3 -30 1 -33 -22 -33 -16 0 -26 -6 -26
-15 0 -17 16 -20 25 -5 9 15 25 12 25 -4 0 -17 -51 -28 -67 -14 -7 6 -13 19
-13 30 0 10 -4 16 -10 13 -5 -3 -10 -17 -10 -31 0 -14 -4 -22 -10 -19 -5 3
-10 24 -10 46 0 55 -24 46 -28 -10 -5 -60 -27 -48 -27 15 0 47 1 49 30 52 19
3 33 -2 41 -13 11 -15 14 -15 34 5 31 31 64 23 68 -17z m-328 -15 c0 -47 -9
-88 -19 -88 -3 0 -6 29 -6 65 0 45 4 65 13 65 8 0 12 -15 12 -42z m131 30 c1
-7 0 -22 -1 -33 -1 -11 -3 -31 -4 -45 -1 -21 -6 -25 -31 -25 -28 0 -30 3 -33
43 -2 24 2 50 9 58 14 17 59 19 60 2z m-173 -48 c0 -40 -4 -53 -20 -61 -27
-14 -31 -8 -34 56 -3 55 -3 55 26 55 28 0 29 -1 28 -50z m87 -8 c0 -70 -19
-67 -23 4 -2 43 0 55 10 52 8 -3 13 -23 13 -56z m-949 -48 c31 -9 54 -18 52
-20 -6 -6 -122 28 -133 39 -7 7 -4 8 8 4 10 -4 43 -14 73 -23z m-396 -18 c0
-3 -4 -8 -10 -11 -5 -3 -10 -1 -10 4 0 6 5 11 10 11 6 0 10 -2 10 -4z m657
-52 c-3 -3 -12 -4 -19 -1 -8 3 -5 6 6 6 11 1 17 -2 13 -5z m-637 -24 c0 -5 -5
-10 -11 -10 -5 0 -7 5 -4 10 3 6 8 10 11 10 2 0 4 -4 4 -10z m2352 -40 c-12
-12 -26 -18 -31 -15 -5 3 -12 1 -16 -4 -3 -6 -12 -8 -20 -4 -9 3 -15 -1 -15
-8 0 -9 -15 -15 -42 -17 -22 -1 -46 -6 -52 -9 -6 -4 -31 -8 -56 -10 l-45 -2
33 14 c18 9 42 17 53 18 11 2 25 10 31 18 7 11 11 11 15 2 7 -18 26 -16 19 2
-5 15 13 20 58 15 11 -1 16 3 11 10 -5 7 1 9 19 4 19 -4 28 -2 32 11 5 11 10
13 17 6 8 -8 4 -17 -11 -31z m-2462 10 c0 -5 -7 -10 -15 -10 -8 0 -15 5 -15
10 0 6 7 10 15 10 8 0 15 -4 15 -10z m130 -19 c0 -17 -21 -24 -33 -11 -9 10
-9 11 1 6 6 -4 12 -2 12 3 0 6 5 11 10 11 6 0 10 -4 10 -9z m2331 -51 c-17
-17 -31 -37 -31 -43 -1 -19 -49 -69 -60 -62 -6 4 -9 2 -8 -3 4 -13 -46 -59
-65 -59 -8 0 -13 6 -10 14 8 20 -3 16 -33 -12 -31 -29 -55 -34 -31 -7 19 21
22 32 7 32 -5 0 -10 -6 -10 -14 0 -7 -7 -19 -15 -26 -13 -10 -15 -9 -15 9 0
25 23 50 61 70 15 7 32 24 38 37 6 13 16 24 22 24 6 0 9 9 6 20 -3 11 -1 17 4
14 6 -3 16 0 24 6 9 7 15 8 15 2 0 -5 7 -12 14 -15 10 -4 13 -1 10 8 -7 17 22
32 64 31 17 -1 32 3 32 8 0 5 3 7 6 3 4 -3 -8 -20 -25 -37z m109 26 c0 -3 -4
-8 -10 -11 -5 -3 -10 -1 -10 4 0 6 5 11 10 11 6 0 10 -2 10 -4z m-1400 -16
c13 -9 13 -10 0 -10 -8 0 -22 5 -30 10 -13 9 -13 10 0 10 8 0 22 -5 30 -10z
m-790 -39 c0 -6 -4 -13 -10 -16 -5 -3 -10 1 -10 9 0 9 5 16 10 16 6 0 10 -4
10 -9z m2074 -35 c-6 -16 -24 -23 -24 -8 0 10 22 33 27 28 2 -2 1 -11 -3 -20z
m-2024 4 c0 -5 -2 -10 -4 -10 -3 0 -8 5 -11 10 -3 6 -1 10 4 10 6 0 11 -4 11
-10z m2288 -70 c-7 -10 -14 -17 -17 -15 -4 4 18 35 25 35 2 0 -1 -9 -8 -20z
m-230 -130 c0 -44 0 -43 -13 20 -17 82 -17 105 0 60 7 -19 13 -55 13 -80z
m-813 89 c-57 -10 -683 -24 -675 -16 3 3 136 9 295 13 160 4 292 8 294 10 2 2
34 3 70 3 l66 -2 -50 -8z m-1215 -39 c0 -5 -4 -10 -10 -10 -5 0 -10 5 -10 10
0 6 5 10 10 10 6 0 10 -4 10 -10z"/>
<path d="M3480 4101 c0 -5 5 -13 10 -16 6 -3 10 -2 10 4 0 5 -4 13 -10 16 -5
3 -10 2 -10 -4z"/>
<path d="M1215 4140 c3 -5 13 -10 21 -10 8 0 12 5 9 10 -3 6 -13 10 -21 10 -8
0 -12 -4 -9 -10z"/>
<path d="M3143 653 c2 -18 11 -29 23 -32 16 -3 17 -2 4 14 -12 14 -12 19 -2
22 16 6 5 23 -14 23 -10 0 -14 -8 -11 -27z"/>
<path d="M2970 656 c0 -9 5 -16 10 -16 6 0 10 4 10 9 0 6 -4 13 -10 16 -5 3
-10 -1 -10 -9z"/>
<path d="M1247 520 c3 -11 7 -20 9 -20 2 0 4 9 4 20 0 11 -4 20 -9 20 -5 0 -7
-9 -4 -20z"/>
<path d="M1267 500 c-3 -13 1 -21 14 -25 26 -9 38 1 32 25 -7 26 -39 26 -46 0z"/>
<path d="M2745 620 c-3 -6 1 -13 10 -16 19 -8 30 0 20 15 -8 14 -22 14 -30 1z"/>
<path d="M2560 600 c0 -5 5 -10 10 -10 6 0 10 5 10 10 0 6 -4 10 -10 10 -5 0
-10 -4 -10 -10z"/>
<path d="M2552 558 c6 -18 28 -21 28 -4 0 9 -7 16 -16 16 -9 0 -14 -5 -12 -12z"/>
<path d="M2396 611 c-4 -7 -5 -15 -2 -18 9 -9 19 4 14 18 -4 11 -6 11 -12 0z"/>
<path d="M2390 550 c0 -5 7 -10 15 -10 8 0 15 5 15 10 0 6 -7 10 -15 10 -8 0
-15 -4 -15 -10z"/>
<path d="M3420 310 c0 -5 5 -10 10 -10 6 0 10 5 10 10 0 6 -4 10 -10 10 -5 0
-10 -4 -10 -10z"/>
<path d="M2035 4244 c-127 -17 -334 -66 -420 -99 -33 -13 -71 -26 -85 -30 -41
-12 -179 -85 -268 -143 -211 -135 -364 -298 -489 -517 -84 -148 -101 -191
-150 -370 -75 -277 -93 -394 -93 -597 0 -151 23 -323 69 -508 21 -84 124 -306
167 -360 11 -14 41 -55 67 -91 66 -94 136 -168 198 -210 30 -20 67 -44 83 -55
125 -84 364 -205 476 -242 220 -72 542 -128 785 -135 210 -6 538 25 715 69
301 74 553 213 734 406 49 51 96 104 105 118 9 14 30 43 46 66 41 54 125 217
125 242 0 11 6 22 13 25 25 9 75 186 87 307 14 137 15 220 7 440 -12 288 -75
551 -175 730 -39 69 -104 164 -118 172 -6 4 -29 30 -50 58 -21 27 -40 48 -42
45 -2 -2 6 -32 18 -67 27 -75 29 -194 4 -255 -29 -70 -57 -128 -71 -144 -12
-14 -11 -17 8 -22 11 -3 19 -10 15 -15 -3 -5 -8 -22 -11 -39 -4 -23 -1 -33 12
-37 15 -6 15 -8 3 -16 -12 -8 -12 -10 4 -10 15 0 16 -3 7 -14 -9 -11 -8 -18 5
-30 9 -9 13 -23 10 -31 -3 -10 3 -17 19 -21 14 -3 22 -11 18 -17 -4 -6 0 -8
10 -4 10 3 17 2 17 -3 0 -5 -10 -12 -21 -15 -16 -5 -18 -9 -9 -15 10 -6 8 -11
-9 -21 -27 -18 -27 -29 2 -29 38 0 49 -13 38 -43 -7 -17 -7 -27 -1 -27 18 0
11 -40 -7 -40 -17 -1 -17 -1 0 -14 10 -8 20 -24 22 -36 3 -18 1 -21 -15 -17
-11 3 -20 3 -20 0 0 -9 29 -33 39 -33 6 0 11 -4 11 -10 0 -5 -12 -10 -26 -10
-21 0 -24 -3 -16 -13 8 -10 6 -16 -10 -26 -15 -9 -17 -16 -9 -24 16 -16 14
-27 -5 -27 -8 0 -12 -4 -9 -10 3 -6 1 -10 -4 -10 -6 0 -11 -4 -11 -10 0 -6 32
-11 73 -11 64 -2 67 -2 27 -8 -25 -4 -49 -9 -55 -13 -5 -3 -28 -9 -50 -12
-213 -33 -418 -99 -474 -154 -12 -11 -12 -16 1 -28 11 -12 25 -14 54 -8 36 7
37 8 16 17 -34 15 -24 47 18 62 80 30 259 74 320 79 36 3 56 3 45 -1 -17 -5
-15 -8 15 -19 35 -14 34 -14 -29 -11 -45 3 -64 0 -68 -10 -3 -7 -14 -13 -25
-13 -12 0 -17 -4 -12 -12 5 -8 2 -9 -9 -5 -29 11 -48 -2 -36 -24 7 -15 6 -19
-6 -19 -8 0 -15 -6 -15 -14 0 -8 -16 -16 -41 -20 -65 -10 -59 -12 151 -41 124
-17 139 -21 292 -69 103 -33 139 -49 127 -61 -2 -1 -70 19 -150 45 -154 51
-297 77 -453 85 -93 4 -92 3 29 -16 83 -13 125 -33 53 -25 -40 5 -49 2 -62
-15 -8 -12 -19 -18 -24 -15 -16 10 -44 -5 -38 -20 3 -8 0 -11 -11 -7 -12 5
-14 1 -8 -15 9 -32 -7 -28 -116 26 -34 18 -59 19 -59 3 0 -5 20 -16 45 -25 25
-10 48 -23 52 -30 5 -6 34 -25 66 -41 55 -27 94 -58 51 -40 -10 4 -27 7 -36 7
-10 0 -20 4 -23 9 -4 5 -11 7 -16 4 -5 -4 -9 -1 -9 4 0 6 -10 11 -21 11 -19 0
-20 -2 -8 -17 8 -9 9 -14 3 -10 -7 4 -17 0 -23 -7 -10 -11 -8 -24 9 -56 12
-23 19 -44 16 -47 -2 -3 -14 13 -26 36 -11 23 -25 41 -31 41 -11 0 60 -135 97
-185 23 -31 83 -162 104 -228 19 -60 4 -55 -17 5 -10 29 -33 82 -52 118 -18
36 -51 99 -72 140 -21 41 -47 85 -58 98 -22 26 -44 22 -34 -6 6 -16 5 -16 -14
1 -11 9 -24 17 -29 17 -5 0 21 -28 59 -63 37 -34 67 -69 67 -77 0 -9 -11 -2
-28 17 -15 18 -49 49 -76 71 -45 36 -51 37 -66 23 -9 -9 -25 -21 -36 -27 -17
-10 -16 -15 24 -97 23 -47 42 -92 42 -99 0 -7 -18 23 -39 67 -48 102 -54 107
-111 92 -56 -14 -52 -11 -44 -31 3 -9 13 -16 21 -16 10 0 13 -6 9 -16 -3 -9
-6 -20 -6 -25 0 -5 -4 -9 -10 -9 -5 0 -10 7 -10 15 0 8 -4 15 -10 15 -5 0 -7
-6 -4 -14 3 -7 -2 -16 -10 -19 -9 -4 -16 -16 -16 -27 0 -12 -4 -19 -9 -15 -5
3 -13 0 -16 -6 -4 -5 -13 -8 -21 -5 -8 3 -14 1 -14 -4 0 -6 -8 -10 -17 -10 -9
0 -25 -8 -35 -17 -17 -15 -91 -26 -158 -23 -49 2 -74 -1 -80 -10 -4 -6 -14 -2
-27 10 -19 17 -23 17 -34 4 -17 -20 -25 -8 -8 13 11 15 10 15 -9 -1 -12 -11
-22 -14 -22 -8 0 5 -11 9 -25 7 -14 -1 -28 2 -31 7 -3 5 -12 4 -20 -3 -8 -6
-14 -8 -14 -3 0 5 -4 3 -9 -4 -7 -11 -11 -11 -23 2 -11 10 -19 11 -26 4 -6 -6
-16 -7 -28 0 -11 5 -38 13 -61 17 -28 4 -43 12 -43 21 0 10 -5 12 -12 8 -21
-13 -50 -12 -55 3 -8 20 -17 16 -59 -25 -21 -20 -33 -30 -28 -22 6 8 23 38 38
65 l27 50 -36 -40 c-20 -22 -48 -60 -61 -85 -14 -25 -22 -34 -18 -20 3 14 19
46 35 73 35 58 36 67 5 67 -13 0 -27 6 -29 13 -4 10 -6 10 -6 0 -1 -18 -41
-16 -41 1 0 7 7 19 15 26 27 22 9 22 -36 1 -45 -22 -84 -28 -74 -11 15 24 -27
5 -159 -71 -78 -45 -144 -84 -148 -86 -5 -2 -8 -2 -8 0 0 3 44 30 98 62 53 32
105 65 115 74 22 18 45 57 29 47 -6 -3 -13 -2 -17 3 -3 6 -20 4 -41 -5 -40
-17 -53 -14 -29 6 22 18 20 43 -2 31 -10 -6 -65 -24 -121 -42 -155 -48 -419
-184 -538 -278 -11 -9 0 3 25 27 50 46 284 179 383 217 57 21 192 80 308 133
76 35 153 60 195 63 36 4 40 2 39 -18 0 -12 4 -21 10 -20 6 1 10 -4 8 -10 -1
-7 5 -13 13 -13 8 0 17 -11 21 -25 7 -28 8 -29 35 -15 23 13 26 35 4 26 -10
-3 -18 1 -22 12 -4 9 -18 28 -31 41 -17 17 -22 30 -18 47 5 17 2 24 -8 24 -12
0 -32 47 -24 55 2 2 19 7 38 12 l35 10 -37 7 c-40 7 -52 32 -20 42 46 15 47
16 14 30 -22 10 -37 11 -50 4 -9 -5 -33 -14 -52 -19 l-35 -9 43 -1 c30 -1 42
-5 42 -16 0 -8 -8 -15 -17 -16 -15 0 -15 -2 2 -9 23 -9 21 -10 -57 -36 l-43
-14 56 5 c47 5 57 3 63 -11 4 -10 2 -21 -5 -24 -8 -6 -7 -9 2 -13 24 -8 -2
-24 -81 -51 -41 -14 -106 -37 -144 -51 -81 -30 -105 -32 -86 -10 8 10 9 15 2
15 -6 0 -16 -10 -23 -21 -8 -15 -13 -18 -19 -10 -5 10 -17 10 -46 2 -21 -5
-76 -17 -122 -26 -51 -9 -91 -23 -104 -35 -11 -10 -55 -36 -97 -56 -42 -21
-125 -69 -184 -106 -60 -37 -111 -68 -114 -68 -25 0 109 97 164 119 18 7 45
26 60 41 31 30 270 157 378 200 106 43 167 73 130 65 -16 -4 -48 -15 -72 -26
-23 -10 -56 -19 -73 -19 -18 0 -29 -4 -25 -10 3 -6 -1 -7 -9 -4 -9 3 -16 1
-16 -6 0 -6 -4 -9 -9 -6 -5 3 -28 -1 -51 -9 -23 -8 -44 -14 -48 -13 -4 1 -41
-6 -82 -15 -41 -8 -82 -16 -90 -16 -8 0 -32 -4 -52 -9 -21 -6 -38 -6 -38 -2 0
5 -26 -2 -57 -14 -86 -34 -113 -48 -113 -58 0 -4 -9 -8 -20 -8 -11 0 -20 -4
-20 -9 0 -5 -8 -12 -18 -15 -11 -4 -25 -18 -32 -31 -7 -14 -18 -25 -23 -25 -5
0 -18 -9 -27 -20 -11 -13 -21 -17 -24 -11 -9 14 13 47 41 62 13 7 23 19 23 27
0 18 58 72 77 72 7 0 13 4 13 9 0 4 27 20 60 35 33 15 60 32 60 39 0 7 4 6 10
-3 8 -12 10 -10 10 10 0 21 12 34 60 64 80 51 91 68 23 35 -32 -15 -60 -27
-63 -26 -6 2 -78 -54 -116 -90 -29 -29 -32 -29 -26 2 3 18 0 25 -12 25 -10 0
-13 6 -10 15 4 9 1 15 -7 15 -8 0 -6 5 6 13 25 19 31 77 7 77 -12 0 -8 7 16
26 36 29 42 49 12 41 -26 -7 -25 -1 2 14 23 13 54 21 150 43 49 11 56 11 51
-1 -5 -13 -3 -13 15 -2 11 7 18 17 16 21 -3 4 0 8 5 8 6 0 11 -5 11 -12 0 -7
5 -5 13 4 6 9 35 24 62 32 l50 16 -50 -7 c-27 -4 -63 -8 -80 -9 -16 -1 -31 -3
-32 -4 -2 -2 -6 -3 -10 -5 -5 -1 -21 -7 -38 -15 -31 -13 -41 -15 -134 -25 -30
-3 -58 -8 -62 -10 -6 -4 -19 17 -19 31 0 2 15 13 33 24 l32 21 -33 -6 -33 -5
16 30 c12 24 13 29 1 24 -26 -10 -27 16 -2 28 30 13 33 23 9 37 -12 7 -13 11
-5 11 8 0 12 6 10 12 -3 7 5 20 16 30 19 16 20 17 3 18 -16 0 -15 4 10 30 15
17 34 30 40 30 7 0 13 4 13 8 0 11 109 42 150 43 l35 1 -35 8 c-19 5 -82 12
-139 16 -72 5 -98 10 -87 16 15 9 14 12 -9 34 l-27 25 23 19 c12 11 34 20 48
21 18 1 10 6 -29 18 l-55 17 40 14 40 13 -32 9 c-19 5 -33 15 -33 23 0 8 -7
15 -16 15 -12 0 -11 5 7 20 21 17 22 19 5 20 -12 0 -16 5 -12 15 3 9 0 15 -10
15 -8 0 -13 4 -10 9 3 5 -3 11 -14 14 -26 7 -25 21 3 35 l22 11 -22 0 c-13 1
-23 5 -23 11 0 5 -12 16 -27 24 l-28 15 25 7 c23 7 22 8 -15 19 l-40 11 30 17
c17 9 23 16 15 17 -8 0 -22 5 -30 10 -13 9 -13 11 0 20 13 9 13 10 0 11 -10 0
-8 3 5 9 17 7 17 9 3 9 -18 1 -24 21 -11 34 3 4 6 26 6 49 0 28 6 47 16 55 14
11 14 12 1 13 -10 0 -4 9 15 25 29 24 29 25 7 25 -13 0 -20 4 -17 10 3 6 -1
10 -9 10 -24 0 -19 18 6 22 17 2 24 13 30 42 5 22 14 46 20 53 9 11 9 16 -1
22 -9 6 -5 13 13 25 14 9 26 25 26 35 0 19 62 81 81 81 6 0 8 4 4 10 -3 5 12
14 33 21 25 7 39 17 38 27 -2 27 98 71 137 61 15 -4 27 -3 27 2 0 14 52 10 84
-6 24 -13 31 -13 38 -3 6 10 12 9 23 -6 14 -19 15 -19 15 -1 0 17 1 17 20 0
11 -10 20 -15 20 -11 0 4 8 2 18 -3 11 -6 24 -6 32 -1 10 6 20 3 32 -10 20
-21 24 -35 8 -25 -5 3 -10 2 -10 -4 0 -5 8 -9 18 -9 9 0 25 -3 34 -7 15 -6 12
5 -13 59 -28 61 -30 67 -14 82 15 15 16 14 10 -12 -5 -20 -4 -25 3 -16 7 11
11 10 17 -5 5 -10 10 -29 12 -42 5 -31 33 -84 40 -77 3 3 0 12 -7 21 -10 12
-9 16 3 21 13 4 14 11 6 32 l-10 27 25 -30 c14 -16 25 -33 26 -37 0 -5 5 -8
10 -8 12 0 9 22 -5 32 -6 5 -5 8 3 8 14 0 7 45 -11 68 -6 8 -6 12 2 12 6 0 17
-12 23 -27 7 -16 23 -39 37 -53 24 -25 24 -25 18 -2 -17 57 -16 64 5 25 12
-24 26 -43 30 -43 5 0 5 8 0 18 -11 21 -24 102 -17 102 3 0 10 -10 15 -22 l9
-23 0 23 c1 13 5 20 11 17 6 -3 10 -1 10 4 0 6 5 11 11 11 7 0 10 -13 7 -34
-3 -24 0 -32 9 -29 8 3 13 -3 13 -18 0 -13 5 -31 11 -39 7 -11 8 -5 3 23 -4
24 -2 37 5 37 12 0 10 21 -8 64 -6 16 -10 34 -7 40 2 6 5 3 5 -6 1 -10 5 -18
10 -18 5 0 12 -16 15 -35 4 -19 11 -35 16 -35 6 0 10 4 10 9 0 4 11 7 25 6 14
-2 25 1 25 6 0 5 -4 9 -10 9 -5 0 -2 8 8 18 19 21 36 18 28 -4 -3 -8 -1 -14 3
-14 5 0 7 -10 3 -22 -3 -14 -2 -19 6 -14 7 4 12 19 12 34 0 21 2 24 10 12 6
-10 10 -11 10 -2 0 6 4 12 10 12 5 0 9 -8 8 -17 -3 -45 3 -94 12 -88 5 3 7 26
3 52 -4 34 -3 44 5 39 7 -4 12 -2 12 3 0 6 -4 11 -10 11 -5 0 -10 15 -9 33 l1
32 13 -30 14 -30 1 50 c0 36 3 46 10 35 5 -8 7 -22 4 -32 -6 -20 7 -30 25 -18
8 5 12 18 9 34 -4 21 -2 25 15 22 12 -1 23 -8 25 -15 3 -9 7 -9 18 0 12 10 14
3 14 -37 0 -27 5 -56 10 -64 10 -16 13 -10 11 30 0 14 2 19 5 13 11 -24 21
-13 16 17 -2 17 0 30 6 30 6 0 8 -9 5 -19 -3 -11 -1 -27 5 -36 7 -14 10 -11
16 16 5 27 9 31 16 19 5 -8 10 -28 10 -45 0 -24 2 -27 11 -15 8 12 9 9 5 -12
-5 -23 -3 -26 10 -21 12 5 15 15 11 44 -3 22 -1 39 4 39 5 0 9 -10 10 -22 0
-22 1 -22 9 -3 7 19 9 18 19 -9 6 -15 11 -33 10 -40 -4 -29 4 -38 10 -11 4 17
3 37 -3 46 -6 11 -4 23 8 40 l18 24 -7 -32 c-4 -21 -3 -33 4 -33 6 0 11 -11
11 -25 0 -14 5 -25 11 -25 5 0 7 5 4 10 -3 6 -3 15 1 21 4 8 9 7 15 -2 9 -15
12 -3 11 56 -1 19 1 23 5 11 4 -15 7 -16 14 -5 6 11 9 8 9 -8 0 -25 15 -31 23
-10 3 6 6 0 6 -15 1 -16 6 -28 11 -28 6 0 10 -9 10 -21 0 -12 4 -17 11 -13 6
3 9 21 7 39 -3 25 0 31 10 27 8 -3 12 -14 9 -28 -2 -13 -1 -24 3 -24 12 0 20
44 10 54 -6 6 -10 14 -10 20 0 5 7 1 15 -10 8 -10 15 -31 15 -46 0 -16 5 -28
10 -28 6 0 10 11 10 24 0 13 7 30 17 37 14 12 16 12 11 -1 -2 -8 1 -20 8 -27
17 -17 24 -16 24 2 0 8 7 15 15 15 8 0 15 5 15 12 0 9 3 9 12 0 8 -8 8 -15 -2
-27 -8 -10 -9 -15 -1 -15 6 0 11 -8 11 -17 0 -12 5 -9 15 11 8 15 15 37 15 48
0 16 2 17 14 6 9 -8 11 -17 5 -22 -5 -6 -9 -17 -8 -25 0 -10 2 -11 5 -4 3 7
12 9 21 6 9 -4 14 -2 10 3 -3 6 -1 16 4 24 8 13 10 13 19 0 5 -8 10 -24 10
-35 0 -18 2 -17 17 5 9 13 18 32 18 42 1 10 5 21 10 25 4 5 5 -11 1 -34 -3
-24 -2 -44 4 -48 9 -5 15 14 11 37 0 4 6 19 14 35 15 27 15 26 11 -29 -3 -32
0 -58 5 -58 5 0 10 8 10 18 1 9 2 22 4 27 1 6 3 24 4 40 3 29 3 29 10 6 l7
-24 18 28 c10 15 21 24 25 19 3 -5 13 -9 21 -9 8 0 17 -11 20 -25 6 -24 6 -24
17 -5 11 19 12 19 19 2 6 -16 8 -16 24 -2 17 15 50 11 50 -6 0 -5 7 -9 15 -9
8 0 15 -7 15 -15 0 -19 8 -19 55 1 35 14 38 14 54 -5 13 -14 21 -17 34 -9 16
8 17 6 11 -19 -3 -15 -14 -47 -25 -70 -10 -24 -19 -47 -19 -53 0 -5 -4 -10 -9
-10 -5 0 -12 -7 -15 -16 -4 -9 -2 -13 5 -8 8 4 9 -3 4 -25 -7 -35 1 -40 22
-13 13 15 14 14 8 -12 -5 -26 -4 -28 9 -17 19 16 21 4 6 -33 -11 -30 -8 -32
14 -10 11 10 21 12 32 6 14 -8 14 -10 0 -25 -21 -20 -20 -31 0 -23 17 6 17 -2
-1 -49 -7 -16 -6 -18 6 -7 15 14 43 16 34 2 -3 -5 -1 -18 5 -29 8 -17 5 -24
-25 -47 -19 -14 -35 -31 -35 -37 0 -6 10 -1 23 10 25 22 62 39 52 23 -3 -6 2
-10 11 -10 14 0 15 -3 6 -12 -18 -18 -15 -27 8 -21 23 6 27 -12 5 -21 -8 -3
-15 -10 -15 -16 0 -6 4 -9 9 -6 5 4 17 3 26 0 14 -6 13 -9 -6 -30 -12 -13 -19
-27 -16 -31 4 -3 2 -12 -4 -20 -16 -18 4 -17 64 4 29 11 46 22 43 30 -3 6 11
22 30 34 24 14 32 24 24 29 -9 5 -9 9 -1 14 6 4 11 14 11 22 0 7 10 25 23 40
12 14 27 40 33 57 10 32 11 203 1 242 -3 11 -6 28 -6 38 -2 52 -388 382 -422
361 -7 -4 -9 -3 -5 4 6 10 -169 101 -260 135 -307 115 -763 171 -1059 131z
m392 -406 c-3 -8 -6 -5 -6 6 -1 11 2 17 5 13 3 -3 4 -12 1 -19z m570 -20 c-3
-8 -6 -5 -6 6 -1 11 2 17 5 13 3 -3 4 -12 1 -19z m-200 -35 c-3 -10 -5 -2 -5
17 0 19 2 27 5 18 2 -10 2 -26 0 -35z m-910 -5 c-3 -7 -5 -2 -5 12 0 14 2 19
5 13 2 -7 2 -19 0 -25z m640 -5 c-3 -10 -5 -4 -5 12 0 17 2 24 5 18 2 -7 2
-21 0 -30z m-550 -25 c-3 -8 -6 -5 -6 6 -1 11 2 17 5 13 3 -3 4 -12 1 -19z
m-203 -3 c3 -8 1 -15 -4 -15 -6 0 -10 7 -10 15 0 8 2 15 4 15 2 0 6 -7 10 -15z
m-254 -45 c0 -5 -5 -10 -11 -10 -5 0 -7 5 -4 10 3 6 8 10 11 10 2 0 4 -4 4
-10z m36 -4 c20 -21 17 -28 -6 -16 -11 6 -20 15 -20 20 0 14 9 12 26 -4z
m-426 -1215 c-54 -29 -80 -35 -80 -19 0 25 24 38 70 38 l45 -1 -35 -18z m2465
-507 c21 -8 19 -21 -4 -29 -18 -5 -111 28 -111 41 0 7 90 -3 115 -12z m457
-78 l22 -31 -28 25 c-15 14 -33 34 -39 45 -9 18 -9 19 7 6 9 -8 27 -28 38 -45z
m-301 -12 c63 -37 211 -171 231 -209 6 -11 -22 13 -63 54 -41 40 -112 100
-158 132 -96 67 -100 75 -10 23z m-163 -71 c23 -24 46 -53 40 -53 -2 0 -19 16
-38 35 -19 19 -31 35 -27 35 5 0 16 -8 25 -17z m162 -50 c0 -7 -55 34 -71 54
-8 10 5 3 29 -16 23 -18 42 -35 42 -38z m-469 40 c13 -16 12 -17 -3 -4 -17 13
-22 21 -14 21 2 0 10 -8 17 -17z m-147 -58 c3 -8 1 -15 -4 -15 -6 0 -10 7 -10
15 0 8 2 15 4 15 2 0 6 -7 10 -15z m-24 -5 c0 -5 -2 -10 -4 -10 -3 0 -8 5 -11
10 -3 6 -1 10 4 10 6 0 11 -4 11 -10z m-1391 -54 c-10 -9 -129 -66 -129 -61 0
6 111 64 124 65 5 0 7 -2 5 -4z m376 -34 c-6 -5 -59 -42 -119 -83 -135 -92
-262 -210 -345 -323 -67 -90 -81 -105 -57 -58 50 95 182 241 289 321 98 72
275 182 232 143z m-615 -205 c0 -2 -10 -12 -22 -23 l-23 -19 19 23 c18 21 26
27 26 19z m-230 -51 c0 -2 -8 -10 -17 -17 -16 -13 -17 -12 -4 4 13 16 21 21
21 13z m131 -43 c-22 -21 -56 -54 -74 -74 -17 -19 -23 -24 -12 -10 34 45 109
121 118 121 5 0 -9 -17 -32 -37z"/>
<path d="M2225 3838 c-6 -18 -8 -38 -6 -72 2 -45 13 -23 16 33 4 49 -1 65 -10
39z"/>
<path d="M2250 3781 c0 -5 5 -13 10 -16 6 -3 10 -2 10 4 0 5 -4 13 -10 16 -5
3 -10 2 -10 -4z"/>
<path d="M3074 3755 c-3 -8 -1 -27 4 -42 10 -27 10 -26 11 15 1 43 -5 54 -15
27z"/>
<path d="M2350 3720 c0 -11 4 -20 9 -20 5 0 7 9 4 20 -3 11 -7 20 -9 20 -2 0
-4 -9 -4 -20z"/>
<path d="M2430 3730 c0 -8 5 -22 10 -30 9 -13 10 -13 10 0 0 8 -5 22 -10 30
-9 13 -10 13 -10 0z"/>
<path d="M2741 3724 c0 -11 3 -14 6 -6 3 7 2 16 -1 19 -3 4 -6 -2 -5 -13z"/>
<path d="M2175 3720 c3 -5 8 -10 11 -10 2 0 4 5 4 10 0 6 -5 10 -11 10 -5 0
-7 -4 -4 -10z"/>
<path d="M2791 3714 c0 -11 3 -14 6 -6 3 7 2 16 -1 19 -3 4 -6 -2 -5 -13z"/>
<path d="M2181 3684 c0 -11 3 -14 6 -6 3 7 2 16 -1 19 -3 4 -6 -2 -5 -13z"/>
<path d="M3052 3650 c0 -14 2 -19 5 -12 2 6 2 18 0 25 -3 6 -5 1 -5 -13z"/>
<path d="M1955 3640 c3 -5 8 -10 11 -10 2 0 4 5 4 10 0 6 -5 10 -11 10 -5 0
-7 -4 -4 -10z"/>
<path d="M2990 3607 c0 -13 -6 -29 -12 -36 -11 -10 -10 -11 5 -6 11 5 17 18
17 36 0 16 -2 29 -5 29 -3 0 -5 -10 -5 -23z"/>
<path d="M2371 3604 c0 -11 3 -14 6 -6 3 7 2 16 -1 19 -3 4 -6 -2 -5 -13z"/>
<path d="M3095 3580 c3 -25 8 -71 11 -102 4 -31 3 -65 -1 -75 -4 -10 -10 -27
-12 -37 -5 -30 -13 -32 -15 -5 0 13 -2 29 -3 34 -2 6 -3 25 -4 44 0 19 -4 31
-8 27 -4 -3 -6 -26 -4 -49 2 -39 1 -41 -13 -22 -9 11 -16 40 -16 65 -2 49 -5
46 -15 -15 -7 -39 -8 -39 -18 -15 -10 24 -11 24 -17 -15 -7 -37 -7 -38 -10
-10 -2 17 -3 42 -4 57 0 15 -4 25 -8 22 -4 -3 -8 -12 -8 -20 0 -8 -5 -14 -11
-14 -6 0 -9 9 -6 20 3 11 1 23 -4 26 -5 3 -9 -2 -9 -10 0 -37 -17 -69 -31 -60
-6 4 -6 10 1 19 14 17 23 108 9 100 -5 -4 -9 -21 -9 -40 0 -18 -6 -40 -14 -47
-8 -8 -16 -23 -19 -34 -3 -14 -5 -12 -6 8 -2 55 -31 84 -31 31 0 -26 -1 -26
-15 -7 -15 19 -15 19 -31 -1 -16 -20 -16 -20 -11 3 6 27 -19 31 -26 5 -4 -17
-5 -17 -6 0 0 9 -5 17 -10 17 -5 0 -12 10 -15 23 -7 21 -7 21 -15 2 -8 -19
-10 -18 -20 8 -13 33 -20 35 -17 4 2 -12 0 -32 -4 -42 -6 -16 -9 -13 -19 20
-6 22 -11 53 -11 69 0 41 -9 28 -12 -17 -3 -48 -25 -56 -43 -14 l-13 32 -4
-30 c-2 -21 -8 -29 -19 -27 -12 2 -15 -4 -13 -25 2 -16 1 -20 -2 -10 -3 10
-12 30 -19 44 -8 15 -12 30 -9 35 3 4 -2 5 -10 2 -8 -3 -17 -13 -19 -22 -3
-13 -6 -12 -15 8 l-11 25 0 -29 c-1 -28 -2 -29 -15 -10 -8 10 -18 16 -21 12
-4 -4 -16 3 -26 15 l-19 22 6 -27 c5 -23 3 -26 -15 -21 -12 3 -21 10 -21 16 0
6 -3 7 -7 4 -3 -4 2 -17 13 -29 18 -20 18 -21 1 -15 -10 4 -24 7 -31 7 -7 0
-18 10 -24 23 -10 21 -11 21 -11 1 -1 -30 -12 -36 -27 -16 -7 9 -16 13 -21 8
-4 -5 -2 -11 5 -13 6 -3 12 -17 12 -31 l0 -26 -16 22 c-8 12 -20 22 -27 22 -8
0 -8 -3 0 -11 11 -11 6 -49 -6 -49 -17 0 -31 27 -32 59 l-2 36 -6 -35 c-6 -32
-7 -33 -18 -15 -6 11 -15 16 -20 12 -4 -5 3 -18 17 -29 14 -11 24 -25 22 -30
-1 -5 3 -19 10 -31 7 -12 13 -26 13 -32 6 -43 19 -75 28 -66 5 5 15 7 22 5 8
-3 11 5 8 28 -3 27 -1 29 6 13 10 -19 10 -19 17 3 9 30 26 28 18 -2 -3 -13 -1
-27 5 -30 6 -4 11 0 11 8 0 9 5 16 10 16 6 0 10 -7 10 -16 0 -8 4 -12 10 -9 6
4 4 15 -6 30 -14 22 -14 26 1 47 l17 23 -5 -22 c-3 -13 -1 -23 4 -23 5 0 9 5
9 10 0 6 5 10 10 10 6 0 10 -6 10 -14 0 -23 33 -29 47 -10 12 16 13 17 13 1 0
-9 -5 -17 -11 -17 -5 0 -7 -5 -4 -11 5 -6 12 -4 22 8 14 17 14 17 10 -4 -3
-15 0 -23 8 -23 7 0 16 -6 18 -12 3 -7 6 -4 6 7 1 11 -6 30 -14 42 -9 13 -11
24 -6 28 11 6 41 -32 42 -55 1 -8 5 -4 9 10 7 21 8 22 9 5 2 -25 30 -76 30
-55 0 8 -4 33 -9 55 -9 40 -9 40 9 18 10 -12 21 -19 25 -16 3 3 12 1 20 -6 11
-9 15 -7 20 14 4 14 11 23 17 20 5 -4 7 -16 3 -27 -4 -14 -2 -18 5 -14 6 4 11
0 11 -8 0 -24 15 -19 30 9 10 19 16 22 27 14 7 -6 13 -8 13 -3 0 5 7 0 15 -10
8 -11 15 -15 15 -9 0 6 9 13 20 16 15 4 20 0 20 -15 0 -21 0 -21 21 -2 20 18
22 18 50 1 26 -14 31 -15 35 -2 10 24 20 17 20 -12 -1 -14 5 -28 12 -30 6 -3
12 2 12 11 0 9 7 16 16 16 12 0 15 -6 11 -22 -6 -22 -6 -22 13 2 l20 25 1 -25
c1 -14 1 -29 -1 -35 -1 -6 3 -5 10 1 12 12 60 7 60 -7 0 -5 5 -9 11 -9 5 0 7
5 4 10 -10 16 8 11 32 -9 14 -11 20 -27 18 -42 -1 -13 -6 -51 -9 -84 l-6 -60
20 60 c11 33 20 65 20 70 0 6 9 16 20 22 16 11 18 10 14 -2 -4 -8 -1 -15 5
-15 6 0 14 0 19 0 4 0 7 6 8 13 0 6 4 20 7 30 15 39 15 46 0 51 -8 3 -19 4
-24 0 -14 -8 -12 -1 27 112 34 97 41 144 15 95 -19 -36 -36 -15 -33 39 3 35
-1 54 -11 65 -22 22 -28 19 -17 -11 7 -16 7 -32 0 -44 -12 -23 -13 -43 -1 -36
5 3 8 -15 7 -41 -1 -32 -6 -48 -16 -50 -10 -3 -11 -2 -4 4 12 9 -4 60 -19 61
-16 1 -20 12 -5 12 11 0 14 8 12 30 -2 17 1 30 7 30 6 0 7 5 4 10 -10 17 -25
1 -26 -28 0 -20 -5 -14 -20 28 l-19 55 5 -45z m-805 -90 c0 -5 -2 -10 -4 -10
-3 0 -8 5 -11 10 -3 6 -1 10 4 10 6 0 11 -4 11 -10z m80 -25 c0 -5 -5 -3 -10
5 -5 8 -10 20 -10 25 0 6 5 3 10 -5 5 -8 10 -19 10 -25z m100 9 c0 -8 -4 -12
-10 -9 -5 3 -10 13 -10 21 0 8 5 12 10 9 6 -3 10 -13 10 -21z m-127 1 c4 -8 2
-17 -2 -20 -5 -2 -11 4 -14 15 -6 23 8 27 16 5z m234 -27 c-3 -7 -5 -2 -5 12
0 14 2 19 5 13 2 -7 2 -19 0 -25z m107 -4 c3 -8 2 -12 -4 -9 -6 3 -10 10 -10
16 0 14 7 11 14 -7z m143 -46 c-3 -8 -6 -5 -6 6 -1 11 2 17 5 13 3 -3 4 -12 1
-19z m120 0 c-3 -8 -6 -5 -6 6 -1 11 2 17 5 13 3 -3 4 -12 1 -19z m181 -37
c-7 -9 -13 -17 -14 -19 -1 -2 -1 8 0 21 0 15 6 23 14 20 10 -4 10 -9 0 -22z
m6 -96 c-4 -8 -8 -15 -10 -15 -2 0 -4 7 -4 15 0 8 4 15 10 15 5 0 7 -7 4 -15z"/>
<path d="M1252 3589 c-66 -8 -142 -43 -142 -66 0 -8 -4 -11 -10 -8 -6 3 -10
-4 -10 -18 0 -14 -6 -30 -14 -36 -8 -7 -12 -21 -8 -33 3 -13 1 -19 -5 -15 -6
4 -13 -4 -16 -18 -2 -14 0 -28 4 -31 5 -3 3 -11 -4 -18 -6 -8 -15 -12 -19 -9
-15 9 -8 -7 13 -28 15 -15 18 -23 9 -29 -8 -5 -9 -19 -4 -46 13 -68 11 -79
-16 -77 -15 2 -19 0 -10 -4 21 -9 40 -37 29 -44 -12 -7 12 -57 31 -65 8 -3 30
-8 48 -9 43 -4 50 -12 27 -29 -18 -13 -18 -14 4 -25 27 -15 61 -48 61 -60 0
-14 40 -20 66 -11 13 5 24 14 24 20 0 5 7 10 16 10 13 0 12 5 -5 29 -27 37
-26 39 7 33 26 -5 26 -4 10 15 -23 26 -23 42 2 63 l21 18 -23 16 c-12 9 -17
16 -11 16 7 0 12 8 12 18 2 48 4 51 28 41 32 -12 31 -13 31 16 0 14 -4 25 -9
25 -5 0 -9 11 -9 25 0 19 -4 23 -17 18 -15 -6 -16 -5 -3 9 8 8 21 13 27 11 20
-8 27 26 9 46 -20 22 -21 35 -1 27 8 -3 15 -1 15 4 0 5 7 7 15 4 8 -4 15 -1
15 6 0 8 10 10 27 7 24 -4 25 -4 10 7 -9 7 -14 16 -10 19 3 4 0 14 -7 23 -9
10 -2 9 23 -6 l37 -22 -10 27 c-13 35 -49 86 -72 103 -9 7 -24 19 -32 27 -22
22 -84 32 -154 24z m-177 -449 c3 -5 -1 -10 -10 -10 -9 0 -13 5 -10 10 3 6 8
10 10 10 2 0 7 -4 10 -10z m40 -60 c-3 -5 -11 -10 -16 -10 -6 0 -7 5 -4 10 3
6 11 10 16 10 6 0 7 -4 4 -10z m32 -16 c-3 -3 -12 -4 -19 -1 -8 3 -5 6 6 6 11
1 17 -2 13 -5z"/>
<path d="M2790 3589 c0 -5 5 -7 10 -4 6 3 10 8 10 11 0 2 -4 4 -10 4 -5 0 -10
-5 -10 -11z"/>
<path d="M1610 3580 c0 -5 5 -10 11 -10 5 0 7 5 4 10 -3 6 -8 10 -11 10 -2 0
-4 -4 -4 -10z"/>
<path d="M3056 3552 c-8 -24 -3 -37 12 -31 4 2 5 15 2 29 l-6 25 -8 -23z"/>
<path d="M2676 3547 c3 -10 9 -15 12 -12 3 3 0 11 -7 18 -10 9 -11 8 -5 -6z"/>
<path d="M2990 3541 c0 -25 6 -27 13 -6 4 8 2 17 -3 20 -6 4 -10 -3 -10 -14z"/>
<path d="M1882 3510 c0 -14 2 -19 5 -12 2 6 2 18 0 25 -3 6 -5 1 -5 -13z"/>
<path d="M2826 3521 c-4 -7 -5 -15 -2 -18 9 -9 19 4 14 18 -4 11 -6 11 -12 0z"/>
<path d="M1950 3500 c-11 -47 6 -156 26 -164 8 -3 14 -14 14 -25 0 -26 10 -51
21 -51 5 0 7 21 4 48 l-5 47 18 -52 c18 -54 40 -86 28 -43 -3 14 -9 42 -12 63
-4 20 -11 40 -15 43 -5 3 -9 13 -9 22 0 9 -8 26 -17 37 -13 16 -15 17 -10 3 4
-10 3 -18 -2 -18 -4 0 -6 -11 -3 -25 2 -14 0 -25 -5 -25 -5 0 -10 6 -10 13 -1
6 -4 27 -9 46 -5 25 -4 32 4 27 7 -4 12 -4 12 1 -1 10 -29 60 -30 53z"/>
<path d="M2071 3484 c0 -11 3 -14 6 -6 3 7 2 16 -1 19 -3 4 -6 -2 -5 -13z"/>
<path d="M1752 3431 c2 -19 25 -59 55 -99 29 -37 82 -107 118 -156 36 -49 65
-84 65 -79 0 11 -46 130 -60 155 -5 10 -7 25 -4 35 5 16 4 16 -10 -1 -9 -11
-16 -15 -16 -9 0 7 6 18 13 25 9 8 11 21 6 33 -4 12 -8 14 -8 6 -1 -8 -3 -12
-6 -10 -2 3 -1 18 4 34 7 29 8 29 19 -18 7 -26 17 -47 22 -47 5 0 3 21 -5 48
-8 26 -15 51 -15 56 0 4 -7 6 -15 2 -9 -3 -16 1 -16 9 -3 28 -4 33 -11 41 -5
4 -8 2 -8 -5 0 -7 -4 -9 -10 -6 -17 10 -11 -4 10 -25 11 -11 20 -30 19 -42 0
-19 -3 -17 -17 12 -21 47 -29 15 -8 -35 9 -21 16 -40 16 -44 -1 -11 -39 64
-40 77 0 7 -8 21 -17 30 -15 16 -16 14 -10 -23 6 -40 6 -40 -12 -18 -10 12
-21 20 -24 17 -3 -3 -8 8 -12 25 -9 42 -27 51 -23 12z m153 -184 c8 -4 15 -16
14 -25 0 -9 -3 -12 -5 -5 -3 6 -21 28 -40 48 -19 20 -34 41 -34 48 0 6 11 -4
25 -23 14 -19 32 -38 40 -43z"/>
<path d="M2106 3449 c4 -8 -1 -9 -16 -4 -15 5 -20 4 -16 -4 4 -6 3 -11 -3 -11
-6 0 -8 -7 -5 -15 4 -8 1 -15 -4 -15 -6 0 -14 9 -17 21 -4 11 -9 18 -11 16 -3
-3 2 -22 11 -43 10 -22 17 -55 17 -74 0 -27 1 -30 7 -15 7 17 9 16 15 -12 4
-18 11 -33 16 -33 14 0 19 28 10 60 -8 27 -7 31 6 26 9 -3 17 -6 19 -6 2 0 1
-9 -2 -20 -3 -11 0 -20 6 -20 6 0 11 -7 11 -15 0 -8 5 -15 11 -15 6 0 8 8 6
18 -3 9 -8 35 -12 57 -9 58 -27 104 -42 110 -9 3 -11 0 -7 -6z m8 -74 c3 -8 1
-15 -4 -15 -6 0 -10 7 -10 15 0 8 2 15 4 15 2 0 6 -7 10 -15z"/>
<path d="M1655 3386 c3 -21 17 -63 31 -94 13 -30 24 -60 24 -66 0 -6 9 -17 21
-24 12 -8 18 -19 15 -28 -3 -8 1 -14 9 -14 17 0 12 15 -29 95 -30 58 -32 67
-11 59 8 -4 15 -13 15 -21 0 -8 4 -12 9 -9 10 7 35 -44 32 -66 -1 -11 4 -18
13 -18 9 0 16 -7 16 -15 0 -16 15 -21 23 -7 2 4 2 1 1 -6 -2 -7 3 -12 13 -10
13 2 17 -5 19 -31 l2 -33 -22 23 c-12 13 -29 35 -39 49 l-17 25 2 -28 c1 -15
6 -27 10 -27 4 0 21 -15 37 -32 17 -18 31 -27 31 -20 0 7 5 10 10 7 6 -4 9
-14 8 -22 -2 -9 3 -18 11 -21 11 -4 12 2 7 24 -4 16 -12 31 -17 35 -5 3 -7 13
-3 22 3 10 -1 28 -10 42 -9 13 -16 33 -16 43 0 20 -36 73 -90 132 -31 34 -31
35 -11 3 26 -39 27 -56 1 -24 -15 18 -20 19 -20 7 0 -25 -14 -19 -28 12 -7 15
-21 38 -33 52 l-20 25 6 -39z m154 -132 c-5 -6 -7 -14 -4 -18 3 -3 1 -3 -4 1
-5 5 -13 22 -17 38 l-7 30 20 -20 c13 -12 17 -24 12 -31z"/>
<path d="M1615 3380 c-8 -12 12 -50 27 -50 7 0 6 5 -2 15 -6 8 -9 19 -6 24 4
5 2 12 -3 15 -5 4 -12 2 -16 -4z"/>
<path d="M1435 3350 c-3 -5 -1 -10 4 -10 6 0 11 5 11 10 0 6 -2 10 -4 10 -3 0
-8 -4 -11 -10z"/>
<path d="M2370 3338 c0 -9 5 -20 10 -23 13 -8 13 5 0 25 -8 13 -10 13 -10 -2z"/>
<path d="M2665 3330 c-3 -5 -1 -18 4 -27 9 -16 10 -14 11 10 0 28 -5 34 -15
17z"/>
<path d="M2811 3324 c0 -11 3 -14 6 -6 3 7 2 16 -1 19 -3 4 -6 -2 -5 -13z"/>
<path d="M1627 3304 c3 -8 11 -14 19 -14 21 0 17 17 -5 23 -14 3 -18 1 -14 -9z"/>
<path d="M2580 3310 c0 -5 5 -10 11 -10 5 0 7 5 4 10 -3 6 -8 10 -11 10 -2 0
-4 -4 -4 -10z"/>
<path d="M2336 3295 c4 -8 8 -15 10 -15 2 0 4 7 4 15 0 8 -4 15 -10 15 -5 0
-7 -7 -4 -15z"/>
<path d="M1650 3260 c0 -5 5 -10 10 -10 6 0 10 5 10 10 0 6 -4 10 -10 10 -5 0
-10 -4 -10 -10z"/>
<path d="M3224 3223 c-11 -27 -21 -52 -23 -58 -2 -5 6 1 17 15 20 23 21 24 23
5 1 -11 1 -39 -1 -62 -1 -26 3 -43 9 -43 6 0 11 5 11 11 0 5 4 8 9 5 5 -3 9 4
9 17 0 12 4 37 10 55 10 29 9 32 -3 22 -12 -10 -15 -9 -15 10 0 15 -4 20 -15
17 -11 -5 -13 0 -8 23 8 44 -2 36 -23 -17z"/>
<path d="M991 3223 c-1 -17 4 -35 9 -38 11 -7 11 9 0 45 -8 24 -8 24 -9 -7z"/>
<path d="M1628 3215 c13 -25 72 -82 72 -69 -1 5 -19 27 -41 49 -23 22 -37 31
-31 20z"/>
<path d="M2010 3213 c0 -19 11 -43 21 -43 13 0 11 14 -6 36 -8 10 -15 14 -15
7z"/>
<path d="M1697 3188 c3 -13 10 -28 14 -34 5 -6 6 -14 2 -17 -3 -4 -1 -7 5 -7
16 0 15 15 -3 50 -18 36 -25 38 -18 8z"/>
<path d="M3410 3195 c-11 -13 -10 -14 4 -9 9 3 16 10 16 15 0 13 -6 11 -20 -6z"/>
<path d="M1880 3185 c0 -15 53 -92 72 -104 26 -16 23 -10 -27 55 -25 31 -45
54 -45 49z"/>
<path d="M1610 3176 c0 -2 7 -9 15 -16 9 -7 15 -8 15 -2 0 5 -7 12 -15 16 -8
3 -15 4 -15 2z"/>
<path d="M3326 3123 c-20 -21 -41 -50 -47 -65 -14 -34 -29 -37 -22 -5 3 16 2
18 -5 9 -5 -8 -12 -13 -16 -12 -13 2 -66 -55 -66 -72 0 -9 -4 -20 -10 -23 -5
-3 -10 -15 -10 -26 0 -24 -14 -24 -40 -2 -12 10 -20 30 -20 47 0 16 -3 26 -7
22 -4 -4 -13 10 -19 31 l-12 38 -1 -38 c-1 -23 -5 -36 -11 -32 -5 3 -10 0 -11
-7 0 -7 -4 -4 -9 7 -5 11 -9 14 -9 8 -2 -24 -21 -13 -21 12 0 14 -4 25 -10 25
-5 0 -10 -7 -10 -16 0 -14 -3 -14 -15 -4 -12 10 -15 9 -15 -6 -1 -14 -5 -10
-15 11 -8 18 -14 23 -14 13 -1 -9 -6 -20 -12 -23 -6 -4 -9 0 -7 10 2 14 -5 19
-36 21 -22 2 -43 9 -48 16 -5 9 -8 8 -8 -4 0 -20 -20 -25 -21 -5 0 6 -5 -4
-11 -23 l-11 -35 -13 35 c-11 32 -18 28 -15 -10 0 -8 -4 -5 -11 8 l-11 22 -11
-22 c-12 -24 -33 -30 -53 -16 -7 6 -14 2 -18 -11 -6 -19 -45 -27 -45 -9 0 4
-4 8 -10 8 -5 0 -11 -12 -11 -27 -1 -17 -3 -21 -6 -10 -6 25 -23 21 -24 -5 -1
-17 -2 -19 -6 -5 -2 9 -9 17 -14 17 -5 0 -9 7 -9 16 0 8 -5 12 -10 9 -6 -3 -7
-17 -4 -31 4 -14 2 -24 -5 -24 -6 0 -13 11 -17 25 -7 27 -24 34 -24 10 0 -8
-7 -15 -15 -15 -7 0 -19 -8 -24 -17 -6 -10 -11 -12 -11 -5 0 6 -4 12 -9 12
-11 0 -35 -95 -28 -112 3 -7 6 -3 6 8 1 25 31 56 31 33 0 -12 2 -12 9 -1 5 9
8 -9 6 -45 -2 -68 7 -117 18 -90 3 9 4 32 2 51 -3 23 0 36 10 39 9 4 12 1 8
-9 -3 -7 0 -14 7 -14 6 0 10 -8 9 -17 -3 -39 0 -46 16 -33 16 13 21 35 6 26
-11 -7 -21 28 -11 44 5 8 9 5 13 -9 3 -12 10 -21 16 -21 6 0 8 8 4 18 -6 16
-5 16 15 -1 20 -18 20 -18 15 2 -3 11 -14 23 -24 26 -20 7 -26 25 -9 25 6 0
10 8 10 17 0 12 10 4 28 -21 l27 -39 6 29 7 29 1 -26 c0 -15 10 -37 21 -50 11
-13 18 -17 16 -9 -7 24 -15 137 -9 120 8 -22 40 -50 47 -42 4 3 4 -2 0 -12 -6
-15 -4 -17 6 -11 10 6 12 4 6 -10 -5 -15 -4 -16 9 -5 11 9 14 22 9 45 -4 21
-1 35 6 40 9 5 10 1 5 -14 -4 -14 -1 -23 9 -27 9 -3 16 -14 16 -24 0 -11 5
-22 10 -25 6 -3 10 1 10 9 0 13 4 14 24 5 14 -7 22 -17 19 -25 -7 -20 5 -47
17 -39 7 4 8 11 1 18 -6 8 -5 19 5 31 12 17 13 14 11 -32 -2 -57 9 -71 16 -19
4 28 5 30 11 10 5 -14 13 -20 23 -16 12 5 14 1 9 -18 l-6 -24 12 23 c7 14 8
26 2 30 -5 4 -10 23 -11 42 -2 31 -1 32 7 12 15 -35 30 -18 19 21 -5 17 -9 41
-9 51 0 31 21 4 24 -30 2 -33 25 -84 38 -84 4 0 8 12 7 28 0 23 -2 24 -8 8 -7
-18 -8 -18 -14 -3 -11 30 1 46 27 34 16 -8 22 -18 19 -36 -3 -23 -2 -24 6 -6
10 20 10 20 16 -1 4 -12 18 -27 31 -34 15 -9 24 -23 25 -39 0 -24 1 -24 9 -6
9 19 9 19 16 -2 3 -13 9 -23 13 -23 3 0 12 -13 19 -30 8 -16 20 -30 28 -30 16
0 19 -16 4 -25 -5 -3 -10 -11 -10 -17 0 -6 9 -3 20 7 13 12 20 14 20 5 0 -7 8
-10 20 -7 11 3 23 0 28 -6 4 -7 13 -12 20 -13 36 -3 41 -5 37 -16 -4 -9 7 -13
35 -12 27 0 40 -4 40 -13 0 -7 4 -13 8 -13 17 0 102 60 102 72 0 9 -3 9 -12 0
-20 -20 -28 -14 -27 21 2 58 -19 127 -39 127 -4 0 -15 17 -24 38 -9 20 -26 57
-38 81 -11 25 -17 54 -14 64 5 16 3 19 -12 13 -19 -7 -34 8 -34 37 0 10 19 44
43 75 24 31 47 63 51 70 14 23 -3 12 -38 -25z m-451 -193 c3 -5 1 -10 -4 -10
-6 0 -11 5 -11 10 0 6 2 10 4 10 3 0 8 -4 11 -10z m-300 -9 c3 -5 1 -12 -5
-16 -5 -3 -10 1 -10 9 0 18 6 21 15 7z m-175 -11 c0 -5 -5 -10 -11 -10 -5 0
-7 5 -4 10 3 6 8 10 11 10 2 0 4 -4 4 -10z m360 -5 c0 -8 -2 -15 -4 -15 -2 0
-6 7 -10 15 -3 8 -1 15 4 15 6 0 10 -7 10 -15z m22 -47 c-6 -6 -12 -5 -17 3
-5 8 -4 10 3 5 8 -5 12 2 13 21 2 25 2 26 6 4 3 -13 0 -28 -5 -33z m468 -19
c0 -20 -15 -26 -24 -10 -8 13 4 42 15 35 5 -3 9 -14 9 -25z"/>
<path d="M1690 3111 c0 -6 4 -13 10 -16 6 -3 7 1 4 9 -7 18 -14 21 -14 7z"/>
<path d="M1810 3089 c0 -9 7 -22 15 -29 19 -16 19 0 0 26 -12 16 -14 16 -15 3z"/>
<path d="M1996 3067 c3 -10 9 -15 12 -12 3 3 0 11 -7 18 -10 9 -11 8 -5 -6z"/>
<path d="M3092 3040 c0 -14 2 -19 5 -12 2 6 2 18 0 25 -3 6 -5 1 -5 -13z"/>
<path d="M2015 3023 c55 -140 92 -266 66 -224 -6 9 -11 10 -15 2 -12 -20 -27
-12 -41 22 -17 41 -31 53 -70 63 -43 10 -47 14 -34 30 8 10 8 14 0 14 -6 0
-36 -26 -67 -59 -41 -42 -62 -74 -77 -117 -11 -32 -25 -62 -30 -66 -15 -9 -20
-55 -7 -63 24 -15 9 -35 -27 -36 -29 -2 -32 -3 -11 -6 30 -5 37 -11 68 -67 21
-38 21 -39 1 -33 -24 6 -27 -3 -8 -22 10 -11 7 -13 -15 -9 -28 5 -39 -6 -15
-16 8 -3 7 -8 -6 -16 -22 -14 -13 -30 18 -30 17 0 23 4 19 14 -4 11 3 12 35 6
23 -4 41 -3 41 1 0 5 -5 9 -11 9 -5 0 -7 5 -4 10 3 6 18 10 32 10 18 0 24 4
19 15 -3 10 1 15 13 15 10 0 22 7 25 16 5 12 14 15 36 11 23 -5 28 -3 24 8 -4
9 2 18 12 22 11 4 26 15 35 25 9 10 20 18 25 18 5 0 16 9 24 20 10 13 21 18
34 14 15 -5 18 -3 13 10 -4 10 -1 16 8 16 8 0 15 5 15 11 0 6 7 9 15 5 10 -3
15 1 15 12 1 10 10 2 26 -23 15 -22 23 -31 19 -20 -21 57 -35 110 -34 129 0
13 4 8 11 -14 12 -43 28 -62 28 -33 0 11 10 33 22 49 l22 28 6 -24 c7 -31 27
-37 35 -11 17 55 26 154 16 186 -8 25 -17 18 -12 -9 1 -5 -4 -13 -11 -17 -11
-7 -11 -12 0 -30 7 -11 11 -23 8 -26 -3 -3 -8 2 -12 11 -3 9 -15 16 -25 16
-10 0 -19 5 -19 10 0 6 -4 10 -9 10 -5 0 -7 -10 -4 -22 5 -23 5 -23 -10 -3 -9
11 -17 15 -17 8 0 -7 -6 -10 -14 -7 -10 4 -13 -3 -12 -28 4 -49 -6 -57 -21
-17 -11 28 -12 29 -8 6 4 -18 2 -26 -4 -23 -6 4 -8 -5 -5 -21 7 -40 0 -28 -41
67 -58 134 -85 190 -91 190 -4 0 -3 -8 1 -17z m262 -215 c-3 -8 -6 -5 -6 6 -1
11 2 17 5 13 3 -3 4 -12 1 -19z m-273 -89 c-2 -4 -11 -6 -19 -2 -16 5 -20 25
-8 37 9 9 34 -24 27 -35z m213 19 c-3 -8 -6 -5 -6 6 -1 11 2 17 5 13 3 -3 4
-12 1 -19z m-302 -34 c-23 -36 -30 -24 -8 14 10 18 20 27 21 21 2 -5 -4 -21
-13 -35z"/>
<path d="M1000 3016 c0 -2 7 -9 15 -16 13 -11 14 -10 9 4 -5 14 -24 23 -24 12z"/>
<path d="M1035 2970 c18 -29 51 -62 70 -71 16 -8 15 -6 -2 7 -13 9 -23 22 -23
28 0 6 -12 20 -27 30 -15 11 -23 13 -18 6z"/>
<path d="M3626 2874 c-8 -20 -8 -24 2 -23 18 3 32 -2 32 -11 0 -5 -7 -10 -15
-10 -8 0 -15 -9 -15 -21 0 -11 -5 -29 -11 -41 -6 -11 -8 -22 -5 -25 3 -3 10 7
16 23 6 16 19 36 29 44 11 8 22 26 25 40 3 14 3 19 0 13 -8 -19 -22 -16 -29 7
-8 24 -21 26 -29 4z"/>
<path d="M1155 2850 c3 -5 11 -10 16 -10 6 0 7 5 4 10 -3 6 -11 10 -16 10 -6
0 -7 -4 -4 -10z"/>
<path d="M2370 2828 c0 -7 5 -20 10 -28 8 -12 10 -9 10 13 0 15 -4 27 -10 27
-5 0 -10 -6 -10 -12z"/>
<path d="M1210 2803 c0 -12 -6 -23 -12 -25 -7 -3 8 -5 32 -6 38 -1 42 0 25 10
-11 6 -26 18 -32 26 -12 14 -13 13 -13 -5z"/>
<path d="M2567 2800 c3 -14 9 -27 13 -30 4 -3 11 -13 17 -24 10 -17 10 -17 16
3 3 14 0 21 -9 21 -8 0 -14 4 -14 8 0 5 -7 17 -15 28 -13 18 -14 18 -8 -6z"/>
<path d="M2730 2790 c0 -8 5 -22 10 -30 9 -13 10 -13 10 0 0 8 -5 22 -10 30
-9 13 -10 13 -10 0z"/>
<path d="M2510 2775 c0 -9 5 -15 11 -13 6 2 11 8 11 13 0 5 -5 11 -11 13 -6 2
-11 -4 -11 -13z"/>
<path d="M2924 2749 c-3 -6 -1 -16 5 -22 8 -8 11 -5 11 11 0 24 -5 28 -16 11z"/>
<path d="M3683 2732 c-17 -15 -53 -43 -80 -62 -63 -46 -142 -110 -167 -137
-12 -11 -61 -51 -111 -89 -49 -37 -92 -72 -94 -78 -2 -6 -13 -24 -24 -41 l-20
-30 34 32 c27 25 36 29 46 18 9 -9 9 -16 0 -25 -10 -10 -8 -12 6 -6 10 3 28 6
39 6 12 0 18 3 15 6 -3 4 -2 16 4 27 8 14 8 18 0 13 -6 -4 -11 -2 -11 3 0 6
-3 10 -7 10 -51 -8 -29 21 67 90 36 25 73 56 83 68 24 30 151 124 220 163 62
35 69 41 35 33 -23 -5 -23 -5 -3 10 11 9 16 16 10 16 -5 0 -24 -12 -42 -27z"/>
<path d="M2520 2734 c0 -8 5 -12 10 -9 6 3 10 10 10 16 0 5 -4 9 -10 9 -5 0
-10 -7 -10 -16z"/>
<path d="M2482 2720 c0 -14 2 -19 5 -12 2 6 2 18 0 25 -3 6 -5 1 -5 -13z"/>
<path d="M2714 2715 c3 -14 9 -37 12 -51 5 -19 4 -25 -5 -20 -6 4 -11 16 -11
27 0 10 -5 19 -11 19 -6 0 -9 -7 -5 -15 3 -8 2 -15 -3 -15 -5 0 -12 11 -15 25
-8 30 -26 33 -26 5 0 -11 -4 -20 -10 -20 -5 0 -10 9 -10 20 0 29 -18 25 -22
-5 -3 -28 -23 -35 -23 -8 0 30 -25 27 -25 -4 l-1 -28 -13 30 -13 30 -8 -38
c-5 -28 -11 -37 -22 -32 -11 4 -13 1 -9 -10 3 -9 2 -14 -2 -11 -5 3 -16 -4
-25 -15 -21 -24 -21 -29 -3 -29 8 0 17 -6 19 -12 3 -8 6 -5 6 5 1 27 21 10 21
-19 0 -13 4 -24 8 -24 12 0 1 64 -12 72 -7 5 -4 8 7 8 9 0 17 -6 17 -14 0 -8
5 -18 12 -22 8 -5 9 -2 5 9 -4 10 -2 16 6 14 7 -1 11 6 9 16 -2 9 2 25 8 35 8
13 10 13 9 2 -3 -34 3 -44 13 -20 10 24 10 24 18 5 7 -19 7 -19 14 3 7 20 9
20 22 7 9 -8 24 -20 35 -25 15 -9 19 -7 19 6 0 10 5 14 14 11 8 -3 17 -1 20 6
3 9 8 8 15 -3 8 -11 10 -7 5 20 -4 26 -3 31 5 20 6 -8 11 -22 11 -31 0 -9 7
-23 16 -30 15 -12 16 -11 10 11 -7 24 -7 24 18 -5 l25 -30 1 40 c0 33 2 37 11
22 6 -11 8 -32 5 -48 -7 -37 1 -37 16 -1 9 21 12 23 15 10 3 -10 8 -18 13 -18
5 0 17 -12 25 -27 l16 -28 -5 35 c-4 22 -3 30 3 21 5 -7 13 -11 18 -8 6 4 9
-5 7 -21 -2 -15 -1 -19 2 -10 6 19 34 13 34 -7 0 -7 14 -16 30 -20 17 -4 30
-13 30 -20 0 -7 14 -19 30 -27 17 -7 30 -16 30 -20 0 -5 7 -8 15 -8 9 0 18 -7
21 -15 5 -12 9 -13 21 -3 11 9 16 9 23 -1 6 -11 10 -9 19 7 14 26 14 35 1 27
-5 -3 -10 4 -10 15 0 16 -5 20 -15 16 -8 -3 -21 -3 -29 0 -18 7 -40 59 -32 79
3 8 1 15 -4 15 -6 0 -10 -7 -10 -15 0 -20 -17 -19 -30 3 -9 14 -12 15 -17 2
-4 -10 -11 -1 -19 25 -8 28 -12 33 -13 18 -2 -34 -21 -28 -21 7 0 17 -4 30 -9
30 -4 0 -7 -12 -5 -27 2 -17 1 -20 -2 -8 -4 11 -11 25 -16 32 -5 7 -7 17 -4
22 4 5 2 12 -4 16 -6 4 -10 -9 -11 -32 0 -34 -1 -35 -10 -15 -5 13 -7 28 -4
32 3 5 1 11 -5 15 -6 4 -10 -6 -10 -22 l-1 -28 -14 30 c-13 30 -13 30 -15 5
-1 -14 -2 -31 -1 -39 2 -7 -2 -10 -9 -6 -7 4 -9 16 -7 27 4 16 3 17 -9 7 -8
-6 -15 -8 -15 -3 -1 5 -3 19 -4 32 -3 32 -15 40 -16 11 0 -22 -1 -22 -8 -4 -5
11 -7 23 -4 28 2 4 -1 7 -6 7 -6 0 -11 -12 -11 -27 l-1 -28 -17 21 c-18 21
-18 21 -45 2 l-27 -20 0 26 c0 14 -5 26 -11 26 -7 0 -9 -10 -5 -25z m-44 -65
c0 -5 -5 -10 -11 -10 -5 0 -7 5 -4 10 3 6 8 10 11 10 2 0 4 -4 4 -10z"/>
<path d="M2691 2714 c0 -11 3 -14 6 -6 3 7 2 16 -1 19 -3 4 -6 -2 -5 -13z"/>
<path d="M2881 2714 c0 -11 3 -14 6 -6 3 7 2 16 -1 19 -3 4 -6 -2 -5 -13z"/>
<path d="M2395 2701 c-3 -5 -1 -12 5 -16 5 -3 10 1 10 9 0 18 -6 21 -15 7z"/>
<path d="M2451 2694 c0 -11 3 -14 6 -6 3 7 2 16 -1 19 -3 4 -6 -2 -5 -13z"/>
<path d="M2448 2652 c-3 -9 -1 -26 3 -37 6 -15 8 -11 8 18 1 40 -4 48 -11 19z"/>
<path d="M1228 2593 c6 -2 18 -2 25 0 6 3 1 5 -13 5 -14 0 -19 -2 -12 -5z"/>
<path d="M2401 2528 c5 -18 9 -34 9 -35 0 -2 7 -3 15 -3 10 0 15 11 15 35 0
19 -5 35 -11 35 -5 0 -7 -4 -4 -10 3 -5 1 -10 -4 -10 -6 0 -11 5 -11 10 0 6
-4 10 -9 10 -6 0 -6 -12 0 -32z"/>
<path d="M2381 2523 c-1 -22 -21 -34 -21 -13 0 6 -5 10 -11 10 -7 0 -9 -9 -6
-21 4 -16 3 -19 -5 -11 -12 12 -41 4 -32 -9 3 -5 10 -7 15 -4 5 3 6 0 4 -7 -3
-8 1 -22 9 -33 15 -20 15 -20 16 3 0 12 5 22 10 22 6 0 10 6 10 14 0 8 5 16
11 18 6 2 9 15 6 28 -4 23 -4 24 -6 3z"/>
<path d="M2250 2517 c0 -4 7 -21 15 -36 8 -16 12 -31 9 -34 -3 -3 4 -15 16
-27 30 -30 35 -19 11 27 -22 43 -50 82 -51 70z"/>
<path d="M3823 2513 c9 -2 23 -2 30 0 6 3 -1 5 -18 5 -16 0 -22 -2 -12 -5z"/>
<path d="M3246 2449 c-27 -21 -36 -42 -13 -33 12 5 52 54 44 54 -2 0 -16 -9
-31 -21z"/>
<path d="M2212 2438 c-19 -19 -14 -44 13 -62 36 -24 46 -20 33 12 -22 50 -33
63 -46 50z"/>
<path d="M1585 2430 c3 -5 8 -10 11 -10 2 0 4 5 4 10 0 6 -5 10 -11 10 -5 0
-7 -4 -4 -10z"/>
<path d="M1610 2425 c0 -8 61 -36 70 -33 5 2 -9 11 -30 20 -22 9 -40 15 -40
13z"/>
<path d="M2125 2410 c-3 -4 7 -18 21 -29 29 -23 27 -26 -9 -12 -21 8 -24 7
-20 -7 8 -30 113 -50 113 -21 0 27 -93 89 -105 69z"/>
<path d="M3360 2385 c-11 -13 -10 -14 4 -9 9 3 16 10 16 15 0 13 -6 11 -20 -6z"/>
<path d="M1706 2371 c5 -6 34 -17 64 -25 30 -8 66 -18 80 -22 55 -15 10 6 -65
30 -89 29 -93 30 -79 17z"/>
<path d="M1174 2359 c-3 -5 7 -9 22 -9 15 0 24 3 20 7 -11 11 -35 12 -42 2z"/>
<path d="M1230 2360 c0 -5 13 -10 29 -10 17 0 33 5 36 10 4 6 -8 10 -29 10
-20 0 -36 -4 -36 -10z"/>
<path d="M4271 2348 c0 -25 -15 -164 -26 -238 -11 -72 12 -27 25 50 14 84 19
210 9 210 -5 0 -9 -10 -8 -22z"/>
<path d="M1608 2353 c6 -2 18 -2 25 0 6 3 1 5 -13 5 -14 0 -19 -2 -12 -5z"/>
<path d="M1468 2343 c6 -2 18 -2 25 0 6 3 1 5 -13 5 -14 0 -19 -2 -12 -5z"/>
<path d="M3450 2336 c-25 -7 -55 -18 -67 -24 -31 -17 -38 -15 -22 6 7 9 -4 1
-24 -17 -20 -19 -37 -38 -37 -41 0 -3 16 -4 35 -2 20 2 35 10 35 17 0 13 79
55 104 55 8 0 18 5 21 10 3 6 5 10 3 9 -2 0 -23 -6 -48 -13z"/>
<path d="M2410 2325 c0 -11 5 -27 10 -35 7 -12 12 -12 22 -2 10 10 8 17 -10
34 -21 22 -22 22 -22 3z"/>
<path d="M1175 2320 c-3 -5 -1 -10 4 -10 6 0 11 5 11 10 0 6 -2 10 -4 10 -3 0
-8 -4 -11 -10z"/>
<path d="M2105 2321 c6 -6 26 -14 45 -17 24 -5 32 -3 25 4 -5 5 -26 13 -45 17
-25 5 -32 4 -25 -4z"/>
<path d="M2942 2319 c-29 -4 -58 -11 -65 -17 -6 -5 -27 -10 -45 -10 -17 0 -42
-4 -55 -8 -12 -4 -34 -8 -49 -9 -15 0 -37 -10 -50 -21 -13 -12 -35 -24 -50
-28 -19 -4 -28 -14 -33 -36 -4 -17 -10 -28 -15 -25 -12 7 -10 -57 2 -72 5 -7
7 -17 3 -23 -3 -5 -1 -10 5 -10 7 0 10 -7 6 -15 -3 -8 1 -20 7 -27 7 -7 16
-21 20 -30 7 -20 76 -72 125 -95 19 -9 39 -24 45 -35 7 -10 18 -18 25 -18 9 0
12 -6 8 -16 -3 -9 -6 -19 -6 -24 0 -13 -71 -37 -165 -56 -50 -9 -95 -21 -102
-26 -6 -5 -30 -10 -52 -11 -23 -1 -41 -4 -41 -7 0 -3 -17 -4 -37 -2 -27 2 -34
0 -24 -6 8 -6 20 -8 28 -5 18 7 16 -6 -4 -31 -18 -21 -18 -21 3 -3 20 17 52
26 114 31 14 1 31 5 37 9 6 4 15 3 18 -3 5 -8 11 -8 20 0 13 11 49 9 61 -3 11
-11 26 -8 19 3 -3 6 1 10 11 10 12 0 15 -6 11 -21 -4 -16 -3 -19 5 -11 7 7 17
8 29 2 12 -7 19 -6 22 4 6 16 -19 29 -36 20 -9 -5 -9 -4 -1 5 9 10 18 10 40
-3 17 -9 23 -16 14 -17 -8 -1 -1 -4 15 -8 17 -4 47 -2 68 3 37 10 37 10 15 24
-23 13 -23 13 4 7 15 -3 45 2 66 10 22 9 52 17 68 19 55 6 34 23 -38 30 -79 7
-126 29 -109 50 6 6 8 22 4 34 -3 13 -1 22 6 22 6 0 11 6 11 13 0 7 29 28 65
46 93 48 125 82 139 149 4 17 12 34 16 37 10 6 6 45 -12 110 -19 72 -18 71
-27 57 -6 -10 -12 -7 -24 11 -19 29 -44 35 -115 26z m43 -69 c-3 -5 0 -10 8
-10 20 0 29 -28 13 -37 -7 -5 -18 -18 -25 -31 -9 -17 -17 -21 -37 -16 -18 5
-31 0 -51 -20 -15 -15 -33 -24 -42 -21 -9 2 -29 -2 -45 -10 -15 -8 -40 -15
-55 -15 -25 1 -24 2 12 21 47 25 47 33 2 25 -49 -10 -78 1 -72 25 6 21 -9 27
-16 7 -3 -10 -7 -10 -20 1 -10 8 -17 9 -17 3 0 -6 7 -15 16 -20 11 -6 14 -14
9 -22 -6 -10 -11 -9 -20 4 -12 15 -13 15 -18 -4 -3 -11 3 -30 15 -45 27 -34
18 -42 -12 -11 -19 21 -21 31 -16 69 7 47 35 98 36 65 0 -25 20 -27 79 -6 52
19 132 30 197 29 18 -1 37 6 44 14 14 17 24 20 15 5z m35 -97 c-1 -10 -50 -46
-50 -37 0 11 32 44 42 44 4 0 8 -3 8 -7z m-66 -130 c4 -9 1 -21 -5 -27 -9 -8
-10 -8 -5 2 4 7 2 19 -4 27 -7 9 -8 15 -2 15 5 0 13 -8 16 -17z m86 -3 c0 -5
-5 -10 -11 -10 -5 0 -7 5 -4 10 3 6 8 10 11 10 2 0 4 -4 4 -10z m-296 -56 c5
-14 4 -15 -9 -4 -17 14 -19 20 -6 20 5 0 12 -7 15 -16z"/>
<path d="M2790 2210 c0 -5 5 -10 11 -10 5 0 7 5 4 10 -3 6 -8 10 -11 10 -2 0
-4 -4 -4 -10z"/>
<path d="M1240 2289 c-21 -7 -18 -8 13 -5 21 2 41 7 44 10 9 9 -27 6 -57 -5z"/>
<path d="M1948 2293 c7 -3 16 -2 19 1 4 3 -2 6 -13 5 -11 0 -14 -3 -6 -6z"/>
<path d="M2033 2275 c49 -16 55 -35 12 -35 -13 0 -27 -5 -30 -10 -4 -7 7 -8
33 -4 51 8 63 -10 23 -34 -17 -10 -28 -22 -24 -25 10 -11 151 -8 158 3 4 6
-12 10 -40 10 -52 0 -72 23 -40 46 43 32 152 7 199 -45 20 -22 56 -29 56 -11
0 5 -24 26 -53 45 -52 34 -122 54 -212 60 -22 1 -60 5 -85 9 l-45 6 48 -15z"/>
<path d="M3189 2260 c-13 -10 -19 -19 -13 -20 6 0 19 9 29 20 23 26 14 26 -16
0z"/>
<path d="M1235 2180 c-3 -5 -1 -10 4 -10 6 0 11 5 11 10 0 6 -2 10 -4 10 -3 0
-8 -4 -11 -10z"/>
<path d="M3263 2153 c-18 -6 -16 -23 1 -23 17 0 30 16 19 23 -5 2 -14 2 -20 0z"/>
<path d="M3344 2135 c-18 -14 -18 -14 11 -16 24 -1 25 -3 8 -6 -13 -2 -23 -9
-23 -14 0 -12 5 -11 50 2 36 11 37 12 22 30 -20 23 -41 24 -68 4z"/>
<path d="M1315 2123 c-11 -3 -26 -12 -32 -21 -12 -14 -13 -14 -13 1 0 19 -35
23 -46 5 -5 -7 -2 -9 9 -5 29 11 29 -25 0 -55 -33 -35 -28 -35 31 -2 25 14 51
22 57 18 8 -4 9 0 5 14 -5 15 -1 24 12 31 11 6 22 8 25 5 3 -3 14 -1 24 5 15
9 12 10 -17 10 -19 -1 -44 -3 -55 -6z"/>
<path d="M1387 2096 c-4 -10 -1 -13 9 -9 15 6 19 23 5 23 -5 0 -11 -7 -14 -14z"/>
<path d="M3176 2101 c-4 -7 -5 -15 -2 -18 9 -9 19 4 14 18 -4 11 -6 11 -12 0z"/>
<path d="M2314 2089 c-8 -13 13 -29 39 -29 25 0 21 15 -8 28 -17 8 -26 8 -31
1z"/>
<path d="M1350 2075 c0 -8 2 -15 4 -15 2 0 6 7 10 15 3 8 1 15 -4 15 -6 0 -10
-7 -10 -15z"/>
<path d="M1965 2080 c-3 -5 -1 -10 4 -10 6 0 11 5 11 10 0 6 -2 10 -4 10 -3 0
-8 -4 -11 -10z"/>
<path d="M2200 2082 c0 -12 67 -28 77 -18 10 10 -2 16 -41 23 -23 3 -36 2 -36
-5z"/>
<path d="M1170 2059 c0 -5 5 -7 10 -4 6 3 10 8 10 11 0 2 -4 4 -10 4 -5 0 -10
-5 -10 -11z"/>
<path d="M3277 2029 c-26 -15 -20 -29 13 -29 32 0 38 11 17 28 -8 7 -18 7 -30
1z"/>
<path d="M2170 2011 c0 -6 4 -12 8 -15 13 -8 52 5 46 15 -7 12 -54 12 -54 0z"/>
<path d="M1391 2001 c-10 -6 -10 -10 -1 -16 7 -4 19 0 28 9 14 13 14 16 2 16
-8 0 -21 -4 -29 -9z"/>
<path d="M2397 1983 c-15 -14 -6 -23 23 -23 20 0 30 5 30 15 0 15 -40 21 -53
8z"/>
<path d="M1390 1959 l-25 -20 33 16 c17 8 32 18 32 20 0 10 -16 4 -40 -16z"/>
<path d="M3173 1968 c2 -7 12 -13 22 -13 10 0 20 6 23 13 2 7 -6 12 -23 12
-17 0 -25 -5 -22 -12z"/>
<path d="M2262 1935 c-11 -13 -7 -15 25 -15 36 1 37 2 19 15 -24 18 -28 18
-44 0z"/>
<path d="M1300 1909 c0 -5 5 -7 10 -4 6 3 10 8 10 11 0 2 -4 4 -10 4 -5 0 -10
-5 -10 -11z"/>
<path d="M2472 1898 c-19 -19 -14 -28 17 -28 37 0 48 15 22 29 -24 14 -24 14
-39 -1z"/>
<path d="M1200 1885 c-16 -19 -11 -19 31 0 33 14 33 14 8 15 -15 0 -32 -7 -39
-15z"/>
<path d="M2348 1852 c-10 -2 -18 -7 -18 -12 0 -12 28 -20 45 -14 31 12 8 34
-27 26z"/>
<path d="M1855 1790 c-3 -5 -1 -10 4 -10 6 0 11 5 11 10 0 6 -2 10 -4 10 -3 0
-8 -4 -11 -10z"/>
<path d="M1926 1764 c-4 -10 -1 -14 6 -12 15 5 23 28 10 28 -5 0 -13 -7 -16
-16z"/>
<path d="M2270 1735 c-19 -19 -29 -35 -24 -35 6 0 25 16 44 35 19 19 29 35 24
35 -6 0 -25 -16 -44 -35z"/>
<path d="M2316 1728 c-20 -23 -33 -44 -30 -47 6 -6 74 66 74 80 0 16 -7 10
-44 -33z"/>
<path d="M2360 1705 c-20 -24 -6 -28 15 -5 10 11 13 20 8 20 -6 0 -16 -7 -23
-15z"/>
<path d="M4399 723 c-6 -15 -15 -41 -19 -58 -5 -16 -18 -66 -29 -110 -12 -44
-26 -88 -31 -97 -6 -10 -10 -25 -10 -33 0 -9 -4 -13 -10 -10 -5 3 -10 1 -10
-4 0 -6 -5 -10 -11 -8 -7 1 -20 -33 -31 -83 -11 -47 -23 -94 -28 -105 -24 -60
-40 -115 -46 -157 -4 -26 -11 -45 -15 -42 -5 3 -9 0 -9 -5 0 -24 30 -9 36 16
3 16 10 38 15 51 7 18 6 22 -3 16 -8 -4 -6 1 2 12 9 10 17 33 19 49 1 17 9 40
17 52 8 13 19 40 24 60 l9 38 -3 -40 c-2 -22 -13 -74 -24 -115 -11 -41 -22
-92 -26 -112 -7 -38 -7 -38 28 -38 33 0 36 3 42 38 9 52 13 72 20 112 4 19 11
38 16 41 4 3 19 46 31 95 19 72 27 89 42 89 26 0 52 -77 36 -111 -6 -14 -11
-34 -11 -45 0 -11 -6 -22 -14 -25 -16 -6 -39 -62 -31 -74 3 -5 1 -11 -4 -15
-6 -3 -8 -12 -5 -19 3 -7 -5 -30 -16 -50 l-22 -36 216 0 215 0 -102 103 c-143
143 -140 138 -132 261 5 75 3 120 -9 176 -16 77 -71 200 -93 208 -7 2 -18 -9
-24 -25z m62 -233 c-2 -44 -5 -46 -35 -27 -22 15 -24 21 -16 48 5 17 15 38 22
46 10 13 13 12 21 -9 5 -12 9 -39 8 -58z"/>
<path d="M0 630 c0 -83 2 -93 32 -142 18 -29 46 -71 63 -93 78 -100 79 -119 9
-156 l-46 -23 -29 33 -29 34 0 -60 c0 -37 6 -67 15 -79 19 -25 19 -34 0 -34
-24 0 -18 -45 11 -79 25 -31 27 -31 120 -31 52 0 94 3 94 8 0 4 -21 27 -46 52
-83 81 -89 123 -26 162 l35 21 19 -24 c11 -13 26 -32 34 -42 7 -9 33 -45 56
-80 69 -101 64 -97 145 -97 40 0 73 2 73 6 0 10 -113 179 -150 224 -20 25 -41
52 -46 61 -5 9 -26 36 -46 60 -38 45 -106 135 -241 317 -22 29 -41 52 -43 52
-2 0 -4 -40 -4 -90z"/>
<path d="M4346 634 c-9 -35 -4 -39 11 -8 6 13 8 26 3 29 -4 3 -11 -7 -14 -21z"/>
<path d="M1720 160 c0 -5 7 -10 16 -10 8 0 12 5 9 10 -3 6 -10 10 -16 10 -5 0
-9 -4 -9 -10z"/>
<path d="M1462 147 c-8 -10 -6 -13 9 -13 20 0 25 11 10 20 -5 3 -13 0 -19 -7z"/>
<path d="M1407 31 c-3 -14 0 -21 9 -21 16 0 18 9 5 28 -6 10 -10 9 -14 -7z"/>
</g>
</svg>
