<?xml version="1.0" standalone="no"?>
<!DOCTYPE svg PUBLIC "-//W3C//DTD SVG 20010904//EN"
 "http://www.w3.org/TR/2001/REC-SVG-20010904/DTD/svg10.dtd">
<svg version="1.0" xmlns="http://www.w3.org/2000/svg"
 width="512.000000pt" height="512.000000pt" viewBox="0 0 512.000000 512.000000"
 preserveAspectRatio="xMidYMid meet">

<g transform="translate(0.000000,512.000000) scale(0.100000,-0.100000)"
fill="#000000" stroke="none">
<path d="M325 4466 c-68 -17 -129 -50 -182 -99 -69 -64 -86 -108 -61 -161 6
-14 230 -211 497 -438 643 -546 1417 -1209 1669 -1430 176 -154 211 -180 258
-194 49 -14 59 -14 107 0 58 17 56 15 337 261 236 207 931 802 1591 1363 267
227 491 424 497 438 25 53 8 97 -61 161 -55 51 -124 87 -195 102 -80 17 -4388
14 -4457 -3z"/>
<path d="M47 3839 c-49 -29 -47 31 -47 -1432 0 -875 4 -1383 10 -1417 32 -170
170 -308 339 -340 74 -14 4348 -14 4422 0 169 32 307 170 339 340 6 34 10 542
10 1417 0 1470 2 1405 -49 1433 -28 15 -93 12 -117 -4 -33 -23 -1368 -1161
-1683 -1435 -156 -135 -325 -281 -375 -325 -142 -123 -263 -168 -395 -147
-125 20 -160 43 -431 281 -312 274 -1799 1544 -1894 1618 -31 24 -97 30 -129
11z"/>
</g>
</svg>
